<svg xmlns="http://www.w3.org/2000/svg" xmlns:xlink="http://www.w3.org/1999/xlink" width="152" zoomAndPan="magnify" viewBox="0 0 114 45.12" height="50" preserveAspectRatio="xMidYMid meet" version="1.0"><defs><g/><clipPath id="d85499765a"><path d="M 1.089844 0 L 112.910156 0 L 112.910156 36.78125 L 1.089844 36.78125 Z M 1.089844 0 " clip-rule="nonzero"/></clipPath><clipPath id="79bfcd1b76"><path d="M 55.710938 25.363281 L 112.910156 25.363281 L 112.910156 36.78125 L 55.710938 36.78125 Z M 55.710938 25.363281 " clip-rule="nonzero"/></clipPath><clipPath id="872e5964b2"><path d="M 0.710938 0.363281 L 57.910156 0.363281 L 57.910156 11.78125 L 0.710938 11.78125 Z M 0.710938 0.363281 " clip-rule="nonzero"/></clipPath><clipPath id="3108933546"><rect x="0" width="58" y="0" height="12"/></clipPath><clipPath id="e5ce22cc26"><path d="M 0.0625 3 L 5 3 L 5 9 L 0.0625 9 Z M 0.0625 3 " clip-rule="nonzero"/></clipPath><clipPath id="91715483e7"><rect x="0" width="45" y="0" height="11"/></clipPath></defs><g clip-path="url(#d85499765a)"><path fill="#ffffff" d="M 1.089844 0 L 112.910156 0 L 112.910156 36.78125 L 1.089844 36.78125 Z M 1.089844 0 " fill-opacity="1" fill-rule="nonzero"/><path fill="#ffffff" d="M 1.089844 0 L 112.910156 0 L 112.910156 36.78125 L 1.089844 36.78125 Z M 1.089844 0 " fill-opacity="1" fill-rule="nonzero"/></g><g clip-path="url(#79bfcd1b76)"><g transform="matrix(1, 0, 0, 1, 55, 25)"><g clip-path="url(#3108933546)"><g clip-path="url(#872e5964b2)"><path fill="#ff751f" d="M 0.710938 0.363281 L 57.890625 0.363281 L 57.890625 11.78125 L 0.710938 11.78125 Z M 0.710938 0.363281 " fill-opacity="1" fill-rule="nonzero"/></g></g></g></g><g fill="#000000" fill-opacity="1"><g transform="translate(7.65613, 16.330448)"><g><path d="M 3.90625 -8.984375 C 5.207031 -8.984375 6.140625 -8.742188 6.703125 -8.265625 C 7.265625 -7.796875 7.546875 -7.078125 7.546875 -6.109375 C 7.546875 -5.535156 7.40625 -5.023438 7.125 -4.578125 C 6.84375 -4.140625 6.414062 -3.789062 5.84375 -3.53125 C 5.28125 -3.28125 4.585938 -3.15625 3.765625 -3.15625 L 3.21875 -3.15625 L 3.21875 -2.03125 C 3.21875 -1.6875 3.253906 -1.425781 3.328125 -1.25 C 3.410156 -1.082031 3.546875 -0.96875 3.734375 -0.90625 C 3.929688 -0.84375 4.222656 -0.8125 4.609375 -0.8125 C 4.609375 -0.664062 4.582031 -0.519531 4.53125 -0.375 C 4.488281 -0.226562 4.421875 -0.101562 4.328125 0 L 0.625 0 C 0.53125 -0.101562 0.457031 -0.226562 0.40625 -0.375 C 0.351562 -0.519531 0.328125 -0.664062 0.328125 -0.8125 C 0.617188 -0.8125 0.828125 -0.859375 0.953125 -0.953125 C 1.078125 -1.054688 1.140625 -1.222656 1.140625 -1.453125 L 1.140625 -7.453125 C 1.140625 -7.679688 1.078125 -7.84375 0.953125 -7.9375 C 0.828125 -8.039062 0.617188 -8.09375 0.328125 -8.09375 C 0.328125 -8.382812 0.421875 -8.65625 0.609375 -8.90625 C 1.179688 -8.90625 1.957031 -8.925781 2.9375 -8.96875 C 3.425781 -8.976562 3.75 -8.984375 3.90625 -8.984375 Z M 5.328125 -6.140625 C 5.328125 -6.691406 5.203125 -7.132812 4.953125 -7.46875 C 4.703125 -7.8125 4.285156 -7.984375 3.703125 -7.984375 C 3.515625 -7.984375 3.351562 -7.96875 3.21875 -7.9375 L 3.21875 -4.1875 C 3.300781 -4.175781 3.414062 -4.171875 3.5625 -4.171875 C 4.257812 -4.171875 4.726562 -4.359375 4.96875 -4.734375 C 5.207031 -5.109375 5.328125 -5.578125 5.328125 -6.140625 Z M 5.328125 -6.140625 "/></g></g></g><g fill="#000000" fill-opacity="1"><g transform="translate(15.330065, 16.330448)"><g><path d="M 8.1875 -1.453125 C 8.1875 -1.210938 8.242188 -1.046875 8.359375 -0.953125 C 8.472656 -0.859375 8.664062 -0.8125 8.9375 -0.8125 C 8.9375 -0.664062 8.910156 -0.519531 8.859375 -0.375 C 8.804688 -0.226562 8.738281 -0.101562 8.65625 0 L 5.5625 0 C 5.476562 -0.101562 5.410156 -0.226562 5.359375 -0.375 C 5.304688 -0.519531 5.28125 -0.664062 5.28125 -0.8125 C 5.5625 -0.8125 5.757812 -0.859375 5.875 -0.953125 C 5.988281 -1.046875 6.046875 -1.210938 6.046875 -1.453125 L 6.046875 -3.984375 L 3.234375 -3.984375 L 3.234375 -1.453125 C 3.234375 -1.210938 3.289062 -1.046875 3.40625 -0.953125 C 3.519531 -0.859375 3.71875 -0.8125 4 -0.8125 C 4 -0.664062 3.972656 -0.519531 3.921875 -0.375 C 3.867188 -0.226562 3.800781 -0.101562 3.71875 0 L 0.609375 0 C 0.523438 -0.101562 0.457031 -0.226562 0.40625 -0.375 C 0.351562 -0.519531 0.328125 -0.664062 0.328125 -0.8125 C 0.609375 -0.8125 0.804688 -0.859375 0.921875 -0.953125 C 1.035156 -1.046875 1.09375 -1.210938 1.09375 -1.453125 L 1.09375 -7.453125 C 1.09375 -7.679688 1.035156 -7.84375 0.921875 -7.9375 C 0.804688 -8.039062 0.609375 -8.09375 0.328125 -8.09375 C 0.328125 -8.238281 0.351562 -8.382812 0.40625 -8.53125 C 0.457031 -8.675781 0.523438 -8.800781 0.609375 -8.90625 L 3.71875 -8.90625 C 3.800781 -8.800781 3.867188 -8.675781 3.921875 -8.53125 C 3.972656 -8.382812 4 -8.238281 4 -8.09375 C 3.71875 -8.09375 3.519531 -8.039062 3.40625 -7.9375 C 3.289062 -7.84375 3.234375 -7.679688 3.234375 -7.453125 L 3.234375 -5.0625 L 6.046875 -5.0625 L 6.046875 -7.453125 C 6.046875 -7.679688 5.984375 -7.84375 5.859375 -7.9375 C 5.742188 -8.039062 5.550781 -8.09375 5.28125 -8.09375 C 5.28125 -8.238281 5.304688 -8.382812 5.359375 -8.53125 C 5.410156 -8.675781 5.476562 -8.800781 5.5625 -8.90625 L 8.65625 -8.90625 C 8.738281 -8.800781 8.804688 -8.675781 8.859375 -8.53125 C 8.910156 -8.382812 8.9375 -8.238281 8.9375 -8.09375 C 8.664062 -8.09375 8.472656 -8.039062 8.359375 -7.9375 C 8.242188 -7.84375 8.1875 -7.679688 8.1875 -7.453125 Z M 8.1875 -1.453125 "/></g></g></g><g fill="#000000" fill-opacity="1"><g transform="translate(24.597423, 16.330448)"><g><path d="M 7.65625 -3.484375 C 7.65625 -2.296875 7.375 -1.390625 6.8125 -0.765625 C 6.257812 -0.140625 5.429688 0.171875 4.328125 0.171875 C 3.222656 0.171875 2.359375 -0.128906 1.734375 -0.734375 C 1.109375 -1.335938 0.796875 -2.210938 0.796875 -3.359375 L 0.796875 -7.453125 C 0.796875 -7.679688 0.734375 -7.84375 0.609375 -7.9375 C 0.492188 -8.039062 0.289062 -8.09375 0 -8.09375 C 0 -8.414062 0.0976562 -8.6875 0.296875 -8.90625 L 3.484375 -8.90625 C 3.679688 -8.6875 3.78125 -8.414062 3.78125 -8.09375 C 3.488281 -8.09375 3.28125 -8.039062 3.15625 -7.9375 C 3.039062 -7.84375 2.984375 -7.679688 2.984375 -7.453125 L 2.984375 -3.078125 C 2.984375 -2.472656 3.113281 -1.984375 3.375 -1.609375 C 3.632812 -1.242188 4.03125 -1.0625 4.5625 -1.0625 C 5.101562 -1.0625 5.492188 -1.226562 5.734375 -1.5625 C 5.972656 -1.894531 6.09375 -2.332031 6.09375 -2.875 L 6.09375 -7.453125 C 6.09375 -7.679688 6.019531 -7.84375 5.875 -7.9375 C 5.738281 -8.039062 5.507812 -8.09375 5.1875 -8.09375 C 5.1875 -8.4375 5.28125 -8.707031 5.46875 -8.90625 L 8.28125 -8.90625 C 8.46875 -8.6875 8.5625 -8.414062 8.5625 -8.09375 C 8.238281 -8.09375 8.003906 -8.039062 7.859375 -7.9375 C 7.722656 -7.84375 7.65625 -7.679688 7.65625 -7.453125 Z M 7.65625 -3.484375 "/></g></g></g><g fill="#000000" fill-opacity="1"><g transform="translate(33.150928, 16.330448)"><g><path d="M 4.265625 0.171875 C 3.441406 0.171875 2.734375 -0.015625 2.140625 -0.390625 C 1.554688 -0.773438 1.101562 -1.316406 0.78125 -2.015625 C 0.46875 -2.710938 0.3125 -3.519531 0.3125 -4.4375 C 0.3125 -5.394531 0.472656 -6.21875 0.796875 -6.90625 C 1.117188 -7.601562 1.578125 -8.132812 2.171875 -8.5 C 2.765625 -8.863281 3.457031 -9.046875 4.25 -9.046875 C 5.0625 -9.046875 5.765625 -8.851562 6.359375 -8.46875 C 6.953125 -8.09375 7.410156 -7.554688 7.734375 -6.859375 C 8.054688 -6.171875 8.21875 -5.363281 8.21875 -4.4375 C 8.21875 -3.488281 8.050781 -2.664062 7.71875 -1.96875 C 7.394531 -1.28125 6.929688 -0.75 6.328125 -0.375 C 5.734375 -0.0078125 5.046875 0.171875 4.265625 0.171875 Z M 4.265625 -0.765625 C 4.722656 -0.765625 5.097656 -1.03125 5.390625 -1.5625 C 5.691406 -2.101562 5.84375 -3.078125 5.84375 -4.484375 C 5.84375 -5.828125 5.707031 -6.765625 5.4375 -7.296875 C 5.164062 -7.835938 4.78125 -8.109375 4.28125 -8.109375 C 3.8125 -8.109375 3.429688 -7.835938 3.140625 -7.296875 C 2.847656 -6.765625 2.703125 -5.800781 2.703125 -4.40625 C 2.703125 -3.0625 2.835938 -2.117188 3.109375 -1.578125 C 3.390625 -1.035156 3.773438 -0.765625 4.265625 -0.765625 Z M 4.265625 -0.765625 "/></g></g></g><g fill="#000000" fill-opacity="1"><g transform="translate(41.678941, 16.330448)"><g><path d="M 5.640625 -6.0625 C 5.554688 -6.625 5.394531 -7.078125 5.15625 -7.421875 C 4.925781 -7.765625 4.628906 -7.9375 4.265625 -7.9375 C 3.753906 -7.9375 3.34375 -7.691406 3.03125 -7.203125 C 2.726562 -6.710938 2.578125 -5.957031 2.578125 -4.9375 C 2.578125 -3.695312 2.8125 -2.789062 3.28125 -2.21875 C 3.757812 -1.65625 4.378906 -1.375 5.140625 -1.375 C 5.503906 -1.375 5.828125 -1.441406 6.109375 -1.578125 C 6.390625 -1.710938 6.585938 -1.875 6.703125 -2.0625 C 6.804688 -1.988281 6.890625 -1.875 6.953125 -1.71875 C 7.023438 -1.5625 7.0625 -1.421875 7.0625 -1.296875 C 7.0625 -1.085938 6.953125 -0.867188 6.734375 -0.640625 C 6.515625 -0.410156 6.203125 -0.21875 5.796875 -0.0625 C 5.390625 0.09375 4.921875 0.171875 4.390625 0.171875 C 3.640625 0.171875 2.957031 0 2.34375 -0.34375 C 1.726562 -0.6875 1.234375 -1.210938 0.859375 -1.921875 C 0.492188 -2.628906 0.3125 -3.484375 0.3125 -4.484375 C 0.3125 -5.460938 0.476562 -6.289062 0.8125 -6.96875 C 1.144531 -7.65625 1.609375 -8.171875 2.203125 -8.515625 C 2.804688 -8.867188 3.507812 -9.046875 4.3125 -9.046875 C 4.5 -9.046875 4.707031 -9.019531 4.9375 -8.96875 C 5.175781 -8.914062 5.390625 -8.847656 5.578125 -8.765625 C 5.703125 -8.816406 5.882812 -8.875 6.125 -8.9375 C 6.375 -9 6.566406 -9.035156 6.703125 -9.046875 C 6.953125 -8.441406 7.078125 -7.445312 7.078125 -6.0625 Z M 5.640625 -6.0625 "/></g></g></g><g transform="matrix(1, 0, 0, 1, 62, 24)"><g clip-path="url(#91715483e7)"><g clip-path="url(#e5ce22cc26)"><g fill="#ffffff" fill-opacity="1"><g transform="translate(0.28341, 8.479777)"><g><path d="M 0.8125 0.03125 C 0.65625 0.03125 0.515625 -0.0234375 0.390625 -0.140625 C 0.273438 -0.265625 0.21875 -0.460938 0.21875 -0.734375 C 0.21875 -0.921875 0.242188 -1.125 0.296875 -1.34375 C 0.347656 -1.570312 0.410156 -1.804688 0.484375 -2.046875 C 0.554688 -2.285156 0.628906 -2.515625 0.703125 -2.734375 C 0.785156 -2.960938 0.851562 -3.164062 0.90625 -3.34375 C 0.957031 -3.53125 0.984375 -3.675781 0.984375 -3.78125 C 0.984375 -3.90625 0.9375 -3.96875 0.84375 -3.96875 C 0.726562 -3.96875 0.617188 -3.898438 0.515625 -3.765625 C 0.410156 -3.640625 0.296875 -3.460938 0.171875 -3.234375 L 0.140625 -3.25 C 0.140625 -3.601562 0.234375 -3.914062 0.421875 -4.1875 C 0.617188 -4.457031 0.878906 -4.664062 1.203125 -4.8125 C 1.523438 -4.957031 1.890625 -5.03125 2.296875 -5.03125 C 2.703125 -5.03125 3.03125 -4.957031 3.28125 -4.8125 C 3.539062 -4.675781 3.726562 -4.492188 3.84375 -4.265625 C 3.96875 -4.046875 4.03125 -3.8125 4.03125 -3.5625 C 4.03125 -3.351562 3.988281 -3.140625 3.90625 -2.921875 C 3.832031 -2.710938 3.71875 -2.519531 3.5625 -2.34375 C 3.414062 -2.164062 3.242188 -2.023438 3.046875 -1.921875 C 2.847656 -1.816406 2.625 -1.765625 2.375 -1.765625 C 2.125 -1.765625 1.863281 -1.832031 1.59375 -1.96875 C 1.539062 -1.738281 1.488281 -1.507812 1.4375 -1.28125 C 1.394531 -1.050781 1.375 -0.8125 1.375 -0.5625 C 1.375 -0.445312 1.378906 -0.332031 1.390625 -0.21875 C 1.316406 -0.132812 1.226562 -0.0703125 1.125 -0.03125 C 1.019531 0.0078125 0.914062 0.03125 0.8125 0.03125 Z M 1.90625 -2.453125 C 2.09375 -2.453125 2.253906 -2.503906 2.390625 -2.609375 C 2.523438 -2.710938 2.628906 -2.84375 2.703125 -3 C 2.785156 -3.15625 2.828125 -3.316406 2.828125 -3.484375 C 2.828125 -3.671875 2.765625 -3.835938 2.640625 -3.984375 C 2.523438 -4.128906 2.328125 -4.203125 2.046875 -4.203125 C 2.015625 -4.203125 1.972656 -4.195312 1.921875 -4.1875 C 1.878906 -4.1875 1.832031 -4.179688 1.78125 -4.171875 C 1.8125 -4.054688 1.832031 -3.941406 1.84375 -3.828125 C 1.851562 -3.710938 1.859375 -3.601562 1.859375 -3.5 C 1.859375 -3.320312 1.84375 -3.144531 1.8125 -2.96875 C 1.789062 -2.800781 1.765625 -2.632812 1.734375 -2.46875 C 1.796875 -2.457031 1.851562 -2.453125 1.90625 -2.453125 Z M 1.90625 -2.453125 "/></g></g></g></g><g fill="#ffffff" fill-opacity="1"><g transform="translate(4.183379, 8.479777)"><g><path d="M 1.6875 0.046875 C 1.351562 0.046875 1.070312 -0.0195312 0.84375 -0.15625 C 0.625 -0.289062 0.457031 -0.46875 0.34375 -0.6875 C 0.238281 -0.90625 0.1875 -1.144531 0.1875 -1.40625 C 0.1875 -1.644531 0.234375 -1.882812 0.328125 -2.125 C 0.421875 -2.375 0.554688 -2.597656 0.734375 -2.796875 C 0.921875 -3.003906 1.144531 -3.171875 1.40625 -3.296875 C 1.664062 -3.421875 1.957031 -3.484375 2.28125 -3.484375 C 2.675781 -3.484375 2.96875 -3.390625 3.15625 -3.203125 C 3.34375 -3.023438 3.4375 -2.804688 3.4375 -2.546875 C 3.4375 -2.328125 3.378906 -2.125 3.265625 -1.9375 C 3.148438 -1.757812 2.992188 -1.613281 2.796875 -1.5 C 2.609375 -1.382812 2.398438 -1.328125 2.171875 -1.328125 C 2.046875 -1.328125 1.921875 -1.34375 1.796875 -1.375 C 1.679688 -1.414062 1.5625 -1.476562 1.4375 -1.5625 C 1.457031 -1.269531 1.539062 -1.0625 1.6875 -0.9375 C 1.832031 -0.8125 2 -0.75 2.1875 -0.75 C 2.332031 -0.75 2.472656 -0.773438 2.609375 -0.828125 C 2.742188 -0.878906 2.867188 -0.945312 2.984375 -1.03125 C 3.097656 -1.113281 3.191406 -1.203125 3.265625 -1.296875 L 3.3125 -1.265625 C 3.3125 -1.023438 3.257812 -0.820312 3.15625 -0.65625 C 3.0625 -0.488281 2.929688 -0.351562 2.765625 -0.25 C 2.609375 -0.144531 2.4375 -0.0664062 2.25 -0.015625 C 2.0625 0.0234375 1.875 0.046875 1.6875 0.046875 Z M 1.84375 -1.796875 C 1.988281 -1.796875 2.101562 -1.835938 2.1875 -1.921875 C 2.28125 -2.015625 2.347656 -2.117188 2.390625 -2.234375 C 2.441406 -2.347656 2.46875 -2.445312 2.46875 -2.53125 C 2.46875 -2.632812 2.4375 -2.722656 2.375 -2.796875 C 2.320312 -2.867188 2.242188 -2.90625 2.140625 -2.90625 C 2.054688 -2.90625 1.960938 -2.875 1.859375 -2.8125 C 1.765625 -2.75 1.675781 -2.644531 1.59375 -2.5 C 1.519531 -2.363281 1.472656 -2.164062 1.453125 -1.90625 C 1.597656 -1.832031 1.726562 -1.796875 1.84375 -1.796875 Z M 1.84375 -1.796875 "/></g></g></g><g fill="#ffffff" fill-opacity="1"><g transform="translate(7.760635, 8.479777)"><g><path d="M 1.015625 0.03125 C 0.847656 0.03125 0.695312 -0.0351562 0.5625 -0.171875 C 0.4375 -0.304688 0.375 -0.5 0.375 -0.75 C 0.375 -0.863281 0.382812 -0.992188 0.40625 -1.140625 C 0.4375 -1.296875 0.46875 -1.453125 0.5 -1.609375 C 0.539062 -1.773438 0.578125 -1.925781 0.609375 -2.0625 C 0.640625 -2.195312 0.65625 -2.3125 0.65625 -2.40625 C 0.65625 -2.5 0.632812 -2.570312 0.59375 -2.625 C 0.5625 -2.6875 0.519531 -2.71875 0.46875 -2.71875 C 0.382812 -2.71875 0.296875 -2.660156 0.203125 -2.546875 L 0.15625 -2.578125 C 0.15625 -2.648438 0.171875 -2.734375 0.203125 -2.828125 C 0.242188 -2.929688 0.300781 -3.03125 0.375 -3.125 C 0.457031 -3.21875 0.554688 -3.296875 0.671875 -3.359375 C 0.796875 -3.421875 0.941406 -3.453125 1.109375 -3.453125 C 1.347656 -3.453125 1.519531 -3.378906 1.625 -3.234375 C 1.738281 -3.097656 1.796875 -2.9375 1.796875 -2.75 C 1.796875 -2.71875 1.796875 -2.679688 1.796875 -2.640625 C 1.796875 -2.609375 1.789062 -2.578125 1.78125 -2.546875 C 1.945312 -2.835938 2.117188 -3.0625 2.296875 -3.21875 C 2.484375 -3.382812 2.65625 -3.46875 2.8125 -3.46875 C 2.957031 -3.46875 3.0625 -3.410156 3.125 -3.296875 C 3.195312 -3.179688 3.234375 -3.039062 3.234375 -2.875 C 3.234375 -2.726562 3.203125 -2.578125 3.140625 -2.421875 C 3.085938 -2.273438 3.003906 -2.148438 2.890625 -2.046875 C 2.773438 -1.953125 2.640625 -1.910156 2.484375 -1.921875 L 2.453125 -1.9375 C 2.453125 -2.050781 2.414062 -2.140625 2.34375 -2.203125 C 2.269531 -2.273438 2.1875 -2.3125 2.09375 -2.3125 C 1.96875 -2.3125 1.847656 -2.25 1.734375 -2.125 C 1.628906 -2.007812 1.578125 -1.832031 1.578125 -1.59375 C 1.578125 -1.457031 1.59375 -1.304688 1.625 -1.140625 C 1.664062 -0.972656 1.6875 -0.832031 1.6875 -0.71875 C 1.6875 -0.582031 1.648438 -0.457031 1.578125 -0.34375 C 1.515625 -0.226562 1.429688 -0.132812 1.328125 -0.0625 C 1.234375 0 1.128906 0.03125 1.015625 0.03125 Z M 1.015625 0.03125 "/></g></g></g><g fill="#ffffff" fill-opacity="1"><g transform="translate(10.85726, 8.479777)"><g><path d="M 1.375 0.0625 C 1.09375 0.0625 0.859375 0.0234375 0.671875 -0.046875 C 0.484375 -0.128906 0.34375 -0.226562 0.25 -0.34375 C 0.15625 -0.46875 0.109375 -0.59375 0.109375 -0.71875 C 0.109375 -0.894531 0.1875 -1.050781 0.34375 -1.1875 C 0.5 -1.320312 0.707031 -1.390625 0.96875 -1.390625 C 0.96875 -1.148438 1 -0.960938 1.0625 -0.828125 C 1.125 -0.691406 1.203125 -0.59375 1.296875 -0.53125 C 1.390625 -0.46875 1.476562 -0.4375 1.5625 -0.4375 C 1.664062 -0.4375 1.753906 -0.46875 1.828125 -0.53125 C 1.898438 -0.59375 1.9375 -0.671875 1.9375 -0.765625 C 1.9375 -0.890625 1.867188 -1 1.734375 -1.09375 C 1.597656 -1.1875 1.425781 -1.296875 1.21875 -1.421875 C 1.113281 -1.484375 1 -1.554688 0.875 -1.640625 C 0.75 -1.722656 0.644531 -1.828125 0.5625 -1.953125 C 0.476562 -2.078125 0.4375 -2.222656 0.4375 -2.390625 C 0.4375 -2.566406 0.484375 -2.722656 0.578125 -2.859375 C 0.679688 -2.992188 0.816406 -3.109375 0.984375 -3.203125 C 1.160156 -3.296875 1.347656 -3.363281 1.546875 -3.40625 C 1.742188 -3.457031 1.9375 -3.484375 2.125 -3.484375 C 2.46875 -3.484375 2.726562 -3.410156 2.90625 -3.265625 C 3.09375 -3.128906 3.1875 -2.984375 3.1875 -2.828125 C 3.1875 -2.691406 3.113281 -2.566406 2.96875 -2.453125 C 2.832031 -2.347656 2.625 -2.296875 2.34375 -2.296875 C 2.351562 -2.523438 2.304688 -2.691406 2.203125 -2.796875 C 2.097656 -2.910156 1.988281 -2.96875 1.875 -2.96875 C 1.789062 -2.96875 1.722656 -2.941406 1.671875 -2.890625 C 1.617188 -2.835938 1.59375 -2.765625 1.59375 -2.671875 C 1.59375 -2.554688 1.625 -2.457031 1.6875 -2.375 C 1.757812 -2.300781 1.847656 -2.234375 1.953125 -2.171875 C 2.066406 -2.109375 2.179688 -2.050781 2.296875 -2 C 2.453125 -1.925781 2.597656 -1.847656 2.734375 -1.765625 C 2.867188 -1.679688 2.976562 -1.585938 3.0625 -1.484375 C 3.15625 -1.378906 3.203125 -1.25 3.203125 -1.09375 C 3.203125 -0.882812 3.117188 -0.691406 2.953125 -0.515625 C 2.785156 -0.347656 2.5625 -0.207031 2.28125 -0.09375 C 2 0.0078125 1.695312 0.0625 1.375 0.0625 Z M 1.375 0.0625 "/></g></g></g><g fill="#ffffff" fill-opacity="1"><g transform="translate(14.256, 8.479777)"><g><path d="M 1.703125 0.046875 C 1.359375 0.046875 1.070312 -0.0195312 0.84375 -0.15625 C 0.625 -0.289062 0.457031 -0.472656 0.34375 -0.703125 C 0.238281 -0.929688 0.1875 -1.171875 0.1875 -1.421875 C 0.1875 -1.671875 0.226562 -1.914062 0.3125 -2.15625 C 0.40625 -2.394531 0.535156 -2.613281 0.703125 -2.8125 C 0.878906 -3.007812 1.09375 -3.171875 1.34375 -3.296875 C 1.59375 -3.421875 1.875 -3.484375 2.1875 -3.484375 C 2.53125 -3.484375 2.8125 -3.410156 3.03125 -3.265625 C 3.257812 -3.128906 3.425781 -2.945312 3.53125 -2.71875 C 3.644531 -2.488281 3.703125 -2.242188 3.703125 -1.984375 C 3.703125 -1.742188 3.65625 -1.503906 3.5625 -1.265625 C 3.476562 -1.023438 3.347656 -0.804688 3.171875 -0.609375 C 3.003906 -0.410156 2.796875 -0.25 2.546875 -0.125 C 2.304688 -0.0078125 2.023438 0.046875 1.703125 0.046875 Z M 1.890625 -0.53125 C 2.015625 -0.53125 2.113281 -0.59375 2.1875 -0.71875 C 2.269531 -0.851562 2.332031 -1.019531 2.375 -1.21875 C 2.414062 -1.414062 2.4375 -1.617188 2.4375 -1.828125 C 2.4375 -2.003906 2.421875 -2.175781 2.390625 -2.34375 C 2.359375 -2.507812 2.304688 -2.640625 2.234375 -2.734375 C 2.171875 -2.835938 2.082031 -2.890625 1.96875 -2.890625 C 1.851562 -2.890625 1.75 -2.828125 1.65625 -2.703125 C 1.570312 -2.578125 1.507812 -2.414062 1.46875 -2.21875 C 1.425781 -2.019531 1.40625 -1.816406 1.40625 -1.609375 C 1.40625 -1.421875 1.421875 -1.242188 1.453125 -1.078125 C 1.492188 -0.921875 1.546875 -0.789062 1.609375 -0.6875 C 1.679688 -0.582031 1.773438 -0.53125 1.890625 -0.53125 Z M 1.890625 -0.53125 "/></g></g></g><g fill="#ffffff" fill-opacity="1"><g transform="translate(18.149098, 8.479777)"><g><path d="M 1.015625 0.015625 C 0.835938 0.015625 0.679688 -0.0507812 0.546875 -0.1875 C 0.410156 -0.320312 0.34375 -0.507812 0.34375 -0.75 C 0.34375 -0.863281 0.359375 -0.992188 0.390625 -1.140625 C 0.421875 -1.296875 0.457031 -1.453125 0.5 -1.609375 C 0.539062 -1.765625 0.578125 -1.910156 0.609375 -2.046875 C 0.640625 -2.179688 0.65625 -2.296875 0.65625 -2.390625 C 0.65625 -2.484375 0.632812 -2.554688 0.59375 -2.609375 C 0.5625 -2.660156 0.515625 -2.6875 0.453125 -2.6875 C 0.378906 -2.6875 0.296875 -2.640625 0.203125 -2.546875 L 0.15625 -2.578125 C 0.15625 -2.648438 0.171875 -2.734375 0.203125 -2.828125 C 0.242188 -2.929688 0.300781 -3.03125 0.375 -3.125 C 0.445312 -3.21875 0.539062 -3.296875 0.65625 -3.359375 C 0.78125 -3.421875 0.925781 -3.453125 1.09375 -3.453125 C 1.332031 -3.453125 1.507812 -3.378906 1.625 -3.234375 C 1.738281 -3.097656 1.796875 -2.929688 1.796875 -2.734375 C 1.796875 -2.660156 1.789062 -2.59375 1.78125 -2.53125 C 1.875 -2.664062 1.992188 -2.804688 2.140625 -2.953125 C 2.285156 -3.097656 2.441406 -3.21875 2.609375 -3.3125 C 2.785156 -3.40625 2.960938 -3.453125 3.140625 -3.453125 C 3.359375 -3.453125 3.503906 -3.382812 3.578125 -3.25 C 3.660156 -3.113281 3.703125 -2.941406 3.703125 -2.734375 C 3.703125 -2.546875 3.679688 -2.34375 3.640625 -2.125 C 3.597656 -1.90625 3.554688 -1.691406 3.515625 -1.484375 C 3.472656 -1.285156 3.453125 -1.113281 3.453125 -0.96875 C 3.453125 -0.789062 3.503906 -0.703125 3.609375 -0.703125 C 3.660156 -0.703125 3.707031 -0.71875 3.75 -0.75 C 3.789062 -0.78125 3.816406 -0.8125 3.828125 -0.84375 L 3.875 -0.828125 C 3.875 -0.660156 3.828125 -0.507812 3.734375 -0.375 C 3.640625 -0.25 3.519531 -0.148438 3.375 -0.078125 C 3.238281 -0.015625 3.097656 0.015625 2.953125 0.015625 C 2.773438 0.015625 2.617188 -0.0390625 2.484375 -0.15625 C 2.347656 -0.28125 2.28125 -0.484375 2.28125 -0.765625 C 2.28125 -0.929688 2.300781 -1.109375 2.34375 -1.296875 C 2.382812 -1.492188 2.425781 -1.679688 2.46875 -1.859375 C 2.507812 -2.035156 2.53125 -2.179688 2.53125 -2.296875 C 2.53125 -2.367188 2.515625 -2.421875 2.484375 -2.453125 C 2.460938 -2.492188 2.421875 -2.515625 2.359375 -2.515625 C 2.253906 -2.515625 2.140625 -2.46875 2.015625 -2.375 C 1.890625 -2.28125 1.78125 -2.148438 1.6875 -1.984375 C 1.601562 -1.828125 1.5625 -1.65625 1.5625 -1.46875 C 1.5625 -1.34375 1.570312 -1.222656 1.59375 -1.109375 C 1.625 -0.992188 1.640625 -0.867188 1.640625 -0.734375 C 1.640625 -0.484375 1.578125 -0.296875 1.453125 -0.171875 C 1.328125 -0.046875 1.179688 0.015625 1.015625 0.015625 Z M 1.015625 0.015625 "/></g></g></g><g fill="#ffffff" fill-opacity="1"><g transform="translate(22.206987, 8.479777)"><g><path d="M 2.703125 0.03125 C 2.546875 0.03125 2.40625 -0.0195312 2.28125 -0.125 C 2.164062 -0.226562 2.109375 -0.398438 2.109375 -0.640625 C 2.109375 -0.660156 2.109375 -0.679688 2.109375 -0.703125 C 2.109375 -0.722656 2.109375 -0.75 2.109375 -0.78125 C 1.972656 -0.5 1.816406 -0.289062 1.640625 -0.15625 C 1.472656 -0.03125 1.300781 0.03125 1.125 0.03125 C 0.96875 0.03125 0.816406 -0.0234375 0.671875 -0.140625 C 0.535156 -0.253906 0.421875 -0.421875 0.328125 -0.640625 C 0.242188 -0.859375 0.203125 -1.125 0.203125 -1.4375 C 0.203125 -1.75 0.242188 -2.03125 0.328125 -2.28125 C 0.421875 -2.539062 0.539062 -2.753906 0.6875 -2.921875 C 0.832031 -3.097656 0.992188 -3.226562 1.171875 -3.3125 C 1.347656 -3.40625 1.519531 -3.453125 1.6875 -3.453125 C 1.863281 -3.453125 2.023438 -3.394531 2.171875 -3.28125 C 2.316406 -3.175781 2.414062 -3 2.46875 -2.75 C 2.488281 -2.832031 2.5 -2.90625 2.5 -2.96875 C 2.507812 -3.03125 2.515625 -3.070312 2.515625 -3.09375 C 2.523438 -3.21875 2.585938 -3.3125 2.703125 -3.375 C 2.828125 -3.4375 2.960938 -3.46875 3.109375 -3.46875 C 3.234375 -3.46875 3.351562 -3.441406 3.46875 -3.390625 C 3.582031 -3.335938 3.660156 -3.253906 3.703125 -3.140625 L 3.71875 -3.09375 C 3.664062 -2.96875 3.609375 -2.816406 3.546875 -2.640625 C 3.492188 -2.472656 3.441406 -2.289062 3.390625 -2.09375 C 3.347656 -1.90625 3.3125 -1.722656 3.28125 -1.546875 C 3.257812 -1.367188 3.25 -1.207031 3.25 -1.0625 C 3.25 -0.914062 3.265625 -0.8125 3.296875 -0.75 C 3.328125 -0.695312 3.367188 -0.671875 3.421875 -0.671875 C 3.492188 -0.671875 3.5625 -0.726562 3.625 -0.84375 L 3.6875 -0.8125 C 3.6875 -0.65625 3.632812 -0.507812 3.53125 -0.375 C 3.425781 -0.25 3.296875 -0.148438 3.140625 -0.078125 C 2.992188 -0.00390625 2.847656 0.03125 2.703125 0.03125 Z M 1.578125 -0.84375 C 1.703125 -0.84375 1.832031 -0.945312 1.96875 -1.15625 C 2.113281 -1.363281 2.242188 -1.671875 2.359375 -2.078125 C 2.359375 -2.117188 2.363281 -2.15625 2.375 -2.1875 C 2.382812 -2.226562 2.394531 -2.269531 2.40625 -2.3125 C 2.332031 -2.476562 2.253906 -2.59375 2.171875 -2.65625 C 2.085938 -2.726562 2.007812 -2.765625 1.9375 -2.765625 C 1.820312 -2.765625 1.710938 -2.703125 1.609375 -2.578125 C 1.515625 -2.460938 1.4375 -2.3125 1.375 -2.125 C 1.3125 -1.945312 1.28125 -1.765625 1.28125 -1.578125 C 1.28125 -1.328125 1.304688 -1.140625 1.359375 -1.015625 C 1.421875 -0.898438 1.492188 -0.84375 1.578125 -0.84375 Z M 1.578125 -0.84375 "/></g></g></g><g fill="#ffffff" fill-opacity="1"><g transform="translate(26.07949, 8.479777)"><g><path d="M 0.984375 0.03125 C 0.859375 0.03125 0.738281 0 0.625 -0.0625 C 0.507812 -0.125 0.414062 -0.222656 0.34375 -0.359375 C 0.269531 -0.492188 0.234375 -0.671875 0.234375 -0.890625 C 0.234375 -1.085938 0.257812 -1.3125 0.3125 -1.5625 C 0.363281 -1.820312 0.421875 -2.09375 0.484375 -2.375 C 0.554688 -2.65625 0.613281 -2.925781 0.65625 -3.1875 C 0.707031 -3.457031 0.734375 -3.691406 0.734375 -3.890625 C 0.734375 -4.085938 0.710938 -4.226562 0.671875 -4.3125 L 0.65625 -4.328125 C 0.707031 -4.472656 0.796875 -4.585938 0.921875 -4.671875 C 1.054688 -4.753906 1.191406 -4.796875 1.328125 -4.796875 C 1.492188 -4.796875 1.640625 -4.734375 1.765625 -4.609375 C 1.890625 -4.492188 1.953125 -4.296875 1.953125 -4.015625 C 1.953125 -3.859375 1.929688 -3.675781 1.890625 -3.46875 C 1.859375 -3.257812 1.816406 -3.035156 1.765625 -2.796875 C 1.710938 -2.566406 1.660156 -2.335938 1.609375 -2.109375 C 1.554688 -1.878906 1.507812 -1.664062 1.46875 -1.46875 C 1.4375 -1.28125 1.421875 -1.128906 1.421875 -1.015625 C 1.421875 -0.878906 1.4375 -0.785156 1.46875 -0.734375 C 1.507812 -0.691406 1.550781 -0.671875 1.59375 -0.671875 C 1.644531 -0.671875 1.691406 -0.6875 1.734375 -0.71875 C 1.785156 -0.757812 1.816406 -0.800781 1.828125 -0.84375 L 1.890625 -0.828125 C 1.878906 -0.660156 1.828125 -0.507812 1.734375 -0.375 C 1.648438 -0.25 1.539062 -0.148438 1.40625 -0.078125 C 1.269531 -0.00390625 1.128906 0.03125 0.984375 0.03125 Z M 0.984375 0.03125 "/></g></g></g><g fill="#ffffff" fill-opacity="1"><g transform="translate(28.180528, 8.479777)"><g/></g></g><g fill="#ffffff" fill-opacity="1"><g transform="translate(29.416434, 8.479777)"><g><path d="M 1.828125 0.046875 C 1.410156 0.046875 1.066406 -0.03125 0.796875 -0.1875 C 0.535156 -0.34375 0.40625 -0.597656 0.40625 -0.953125 C 0.40625 -0.984375 0.40625 -1.015625 0.40625 -1.046875 C 0.414062 -1.078125 0.421875 -1.101562 0.421875 -1.125 C 0.441406 -1.25 0.476562 -1.40625 0.53125 -1.59375 C 0.59375 -1.78125 0.660156 -1.976562 0.734375 -2.1875 C 0.816406 -2.40625 0.894531 -2.613281 0.96875 -2.8125 C 1.039062 -3.019531 1.101562 -3.207031 1.15625 -3.375 C 1.207031 -3.550781 1.234375 -3.691406 1.234375 -3.796875 C 1.234375 -3.921875 1.195312 -3.984375 1.125 -3.984375 C 1.03125 -3.984375 0.921875 -3.914062 0.796875 -3.78125 C 0.671875 -3.65625 0.535156 -3.472656 0.390625 -3.234375 L 0.34375 -3.265625 C 0.34375 -3.554688 0.398438 -3.8125 0.515625 -4.03125 C 0.640625 -4.257812 0.800781 -4.441406 1 -4.578125 C 1.195312 -4.722656 1.414062 -4.828125 1.65625 -4.890625 C 1.90625 -4.960938 2.148438 -5 2.390625 -5 C 2.703125 -5 2.988281 -4.953125 3.25 -4.859375 C 3.519531 -4.765625 3.738281 -4.625 3.90625 -4.4375 C 4.082031 -4.25 4.171875 -4.023438 4.171875 -3.765625 C 4.171875 -3.285156 3.882812 -2.914062 3.3125 -2.65625 C 3.65625 -2.570312 3.90625 -2.4375 4.0625 -2.25 C 4.21875 -2.070312 4.296875 -1.875 4.296875 -1.65625 C 4.296875 -1.457031 4.238281 -1.257812 4.125 -1.0625 C 4.007812 -0.863281 3.84375 -0.679688 3.625 -0.515625 C 3.414062 -0.347656 3.15625 -0.210938 2.84375 -0.109375 C 2.539062 -0.00390625 2.203125 0.046875 1.828125 0.046875 Z M 2.09375 -2.859375 C 2.3125 -2.859375 2.5 -2.890625 2.65625 -2.953125 C 2.8125 -3.023438 2.929688 -3.117188 3.015625 -3.234375 C 3.109375 -3.347656 3.15625 -3.460938 3.15625 -3.578125 C 3.15625 -3.734375 3.070312 -3.867188 2.90625 -3.984375 C 2.738281 -4.109375 2.484375 -4.171875 2.140625 -4.171875 C 2.148438 -4.085938 2.160156 -4 2.171875 -3.90625 C 2.179688 -3.820312 2.1875 -3.738281 2.1875 -3.65625 C 2.1875 -3.53125 2.175781 -3.398438 2.15625 -3.265625 C 2.144531 -3.128906 2.125 -2.992188 2.09375 -2.859375 Z M 2.03125 -0.78125 C 2.21875 -0.78125 2.382812 -0.820312 2.53125 -0.90625 C 2.6875 -0.988281 2.804688 -1.09375 2.890625 -1.21875 C 2.984375 -1.34375 3.03125 -1.472656 3.03125 -1.609375 C 3.03125 -1.785156 2.941406 -1.953125 2.765625 -2.109375 C 2.597656 -2.265625 2.328125 -2.363281 1.953125 -2.40625 C 1.929688 -2.257812 1.890625 -2.101562 1.828125 -1.9375 C 1.773438 -1.78125 1.722656 -1.628906 1.671875 -1.484375 C 1.628906 -1.335938 1.609375 -1.210938 1.609375 -1.109375 C 1.609375 -1.003906 1.632812 -0.921875 1.6875 -0.859375 C 1.75 -0.804688 1.863281 -0.78125 2.03125 -0.78125 Z M 2.03125 -0.78125 "/></g></g></g><g fill="#ffffff" fill-opacity="1"><g transform="translate(33.900023, 8.479777)"><g><path d="M 0.984375 0.03125 C 0.859375 0.03125 0.738281 0 0.625 -0.0625 C 0.507812 -0.125 0.414062 -0.222656 0.34375 -0.359375 C 0.269531 -0.492188 0.234375 -0.671875 0.234375 -0.890625 C 0.234375 -1.085938 0.257812 -1.3125 0.3125 -1.5625 C 0.363281 -1.820312 0.421875 -2.09375 0.484375 -2.375 C 0.554688 -2.65625 0.613281 -2.925781 0.65625 -3.1875 C 0.707031 -3.457031 0.734375 -3.691406 0.734375 -3.890625 C 0.734375 -4.085938 0.710938 -4.226562 0.671875 -4.3125 L 0.65625 -4.328125 C 0.707031 -4.472656 0.796875 -4.585938 0.921875 -4.671875 C 1.054688 -4.753906 1.191406 -4.796875 1.328125 -4.796875 C 1.492188 -4.796875 1.640625 -4.734375 1.765625 -4.609375 C 1.890625 -4.492188 1.953125 -4.296875 1.953125 -4.015625 C 1.953125 -3.859375 1.929688 -3.675781 1.890625 -3.46875 C 1.859375 -3.257812 1.816406 -3.035156 1.765625 -2.796875 C 1.710938 -2.566406 1.660156 -2.335938 1.609375 -2.109375 C 1.554688 -1.878906 1.507812 -1.664062 1.46875 -1.46875 C 1.4375 -1.28125 1.421875 -1.128906 1.421875 -1.015625 C 1.421875 -0.878906 1.4375 -0.785156 1.46875 -0.734375 C 1.507812 -0.691406 1.550781 -0.671875 1.59375 -0.671875 C 1.644531 -0.671875 1.691406 -0.6875 1.734375 -0.71875 C 1.785156 -0.757812 1.816406 -0.800781 1.828125 -0.84375 L 1.890625 -0.828125 C 1.878906 -0.660156 1.828125 -0.507812 1.734375 -0.375 C 1.648438 -0.25 1.539062 -0.148438 1.40625 -0.078125 C 1.269531 -0.00390625 1.128906 0.03125 0.984375 0.03125 Z M 0.984375 0.03125 "/></g></g></g><g fill="#ffffff" fill-opacity="1"><g transform="translate(35.939266, 8.479777)"><g><path d="M 1.703125 0.046875 C 1.359375 0.046875 1.070312 -0.0195312 0.84375 -0.15625 C 0.625 -0.289062 0.457031 -0.472656 0.34375 -0.703125 C 0.238281 -0.929688 0.1875 -1.171875 0.1875 -1.421875 C 0.1875 -1.671875 0.226562 -1.914062 0.3125 -2.15625 C 0.40625 -2.394531 0.535156 -2.613281 0.703125 -2.8125 C 0.878906 -3.007812 1.09375 -3.171875 1.34375 -3.296875 C 1.59375 -3.421875 1.875 -3.484375 2.1875 -3.484375 C 2.53125 -3.484375 2.8125 -3.410156 3.03125 -3.265625 C 3.257812 -3.128906 3.425781 -2.945312 3.53125 -2.71875 C 3.644531 -2.488281 3.703125 -2.242188 3.703125 -1.984375 C 3.703125 -1.742188 3.65625 -1.503906 3.5625 -1.265625 C 3.476562 -1.023438 3.347656 -0.804688 3.171875 -0.609375 C 3.003906 -0.410156 2.796875 -0.25 2.546875 -0.125 C 2.304688 -0.0078125 2.023438 0.046875 1.703125 0.046875 Z M 1.890625 -0.53125 C 2.015625 -0.53125 2.113281 -0.59375 2.1875 -0.71875 C 2.269531 -0.851562 2.332031 -1.019531 2.375 -1.21875 C 2.414062 -1.414062 2.4375 -1.617188 2.4375 -1.828125 C 2.4375 -2.003906 2.421875 -2.175781 2.390625 -2.34375 C 2.359375 -2.507812 2.304688 -2.640625 2.234375 -2.734375 C 2.171875 -2.835938 2.082031 -2.890625 1.96875 -2.890625 C 1.851562 -2.890625 1.75 -2.828125 1.65625 -2.703125 C 1.570312 -2.578125 1.507812 -2.414062 1.46875 -2.21875 C 1.425781 -2.019531 1.40625 -1.816406 1.40625 -1.609375 C 1.40625 -1.421875 1.421875 -1.242188 1.453125 -1.078125 C 1.492188 -0.921875 1.546875 -0.789062 1.609375 -0.6875 C 1.679688 -0.582031 1.773438 -0.53125 1.890625 -0.53125 Z M 1.890625 -0.53125 "/></g></g></g><g fill="#ffffff" fill-opacity="1"><g transform="translate(39.811768, 8.479777)"><g><path d="M 1.875 1.375 C 1.644531 1.375 1.457031 1.304688 1.3125 1.171875 C 1.164062 1.035156 1.09375 0.847656 1.09375 0.609375 C 1.09375 0.347656 1.1875 0.0390625 1.375 -0.3125 C 1.34375 -0.300781 1.3125 -0.289062 1.28125 -0.28125 C 1.25 -0.28125 1.21875 -0.28125 1.1875 -0.28125 C 0.914062 -0.28125 0.6875 -0.394531 0.5 -0.625 C 0.320312 -0.851562 0.234375 -1.175781 0.234375 -1.59375 C 0.234375 -1.957031 0.304688 -2.28125 0.453125 -2.5625 C 0.597656 -2.851562 0.78125 -3.078125 1 -3.234375 C 1.226562 -3.398438 1.460938 -3.484375 1.703125 -3.484375 C 1.878906 -3.484375 2.035156 -3.4375 2.171875 -3.34375 C 2.304688 -3.257812 2.414062 -3.125 2.5 -2.9375 C 2.507812 -2.988281 2.515625 -3.03125 2.515625 -3.0625 C 2.515625 -3.101562 2.515625 -3.140625 2.515625 -3.171875 C 2.515625 -3.242188 2.570312 -3.304688 2.6875 -3.359375 C 2.8125 -3.410156 2.945312 -3.4375 3.09375 -3.4375 C 3.21875 -3.4375 3.335938 -3.410156 3.453125 -3.359375 C 3.566406 -3.304688 3.644531 -3.222656 3.6875 -3.109375 L 3.703125 -3.0625 C 3.660156 -3.03125 3.625 -2.910156 3.59375 -2.703125 C 3.5625 -2.503906 3.523438 -2.226562 3.484375 -1.875 C 3.453125 -1.644531 3.414062 -1.382812 3.375 -1.09375 C 3.332031 -0.8125 3.273438 -0.523438 3.203125 -0.234375 C 3.140625 0.046875 3.050781 0.304688 2.9375 0.546875 C 2.820312 0.796875 2.675781 0.992188 2.5 1.140625 C 2.332031 1.296875 2.125 1.375 1.875 1.375 Z M 1.640625 -1.0625 C 1.773438 -1.0625 1.921875 -1.171875 2.078125 -1.390625 C 2.242188 -1.609375 2.375 -1.921875 2.46875 -2.328125 C 2.394531 -2.503906 2.3125 -2.628906 2.21875 -2.703125 C 2.132812 -2.785156 2.050781 -2.828125 1.96875 -2.828125 C 1.851562 -2.828125 1.742188 -2.769531 1.640625 -2.65625 C 1.546875 -2.539062 1.46875 -2.394531 1.40625 -2.21875 C 1.34375 -2.039062 1.3125 -1.859375 1.3125 -1.671875 C 1.3125 -1.484375 1.34375 -1.332031 1.40625 -1.21875 C 1.46875 -1.113281 1.546875 -1.0625 1.640625 -1.0625 Z M 1.5625 0.578125 C 1.71875 0.578125 1.875 0.425781 2.03125 0.125 C 2.195312 -0.175781 2.3125 -0.601562 2.375 -1.15625 C 2.03125 -0.6875 1.789062 -0.320312 1.65625 -0.0625 C 1.519531 0.1875 1.453125 0.363281 1.453125 0.46875 C 1.453125 0.539062 1.488281 0.578125 1.5625 0.578125 Z M 1.5625 0.578125 "/></g></g></g></g></g></svg>