<svg xmlns="http://www.w3.org/2000/svg" xmlns:xlink="http://www.w3.org/1999/xlink" width="180" zoomAndPan="magnify" viewBox="0 0 135.12 53.039997" height="60" preserveAspectRatio="xMidYMid meet" version="1.0"><defs><g/><clipPath id="0ffed58689"><path d="M 0.769531 0 L 133.367188 0 L 133.367188 44.199219 L 0.769531 44.199219 Z M 0.769531 0 " clip-rule="nonzero"/></clipPath><clipPath id="e11233a491"><path d="M 0.769531 0.078125 L 133.367188 0.078125 L 133.367188 28.972656 L 0.769531 28.972656 Z M 0.769531 0.078125 " clip-rule="nonzero"/></clipPath><clipPath id="d7eef25748"><path d="M 0.769531 0.078125 L 133.367188 0.078125 L 133.367188 28.972656 L 0.769531 28.972656 Z M 0.769531 0.078125 " clip-rule="nonzero"/></clipPath><clipPath id="8943363a69"><rect x="0" width="134" y="0" height="29"/></clipPath><clipPath id="cd7d3a0dd6"><path d="M 61.757812 0.574219 L 132.667969 0.574219 L 132.667969 28.480469 L 61.757812 28.480469 Z M 61.757812 0.574219 " clip-rule="nonzero"/></clipPath><clipPath id="b67858d170"><path d="M 0.757812 0.574219 L 71.667969 0.574219 L 71.667969 28.480469 L 0.757812 28.480469 Z M 0.757812 0.574219 " clip-rule="nonzero"/></clipPath><clipPath id="bfc83a28d1"><rect x="0" width="72" y="0" height="29"/></clipPath><clipPath id="600b9fa305"><path d="M 61.757812 28.972656 L 133.367188 28.972656 L 133.367188 44.199219 L 61.757812 44.199219 Z M 61.757812 28.972656 " clip-rule="nonzero"/></clipPath><clipPath id="055d3c085c"><path d="M 0.757812 0.972656 L 72.367188 0.972656 L 72.367188 16.199219 L 0.757812 16.199219 Z M 0.757812 0.972656 " clip-rule="nonzero"/></clipPath><clipPath id="1758c63097"><rect x="0" width="73" y="0" height="17"/></clipPath><clipPath id="18f1cc6d0e"><path d="M 0.015625 3 L 5 3 L 5 10 L 0.015625 10 Z M 0.015625 3 " clip-rule="nonzero"/></clipPath><clipPath id="68769242d5"><rect x="0" width="54" y="0" height="13"/></clipPath></defs><g clip-path="url(#0ffed58689)"><path fill="#ffffff" d="M 0.769531 0 L 133.367188 0 L 133.367188 44.199219 L 0.769531 44.199219 Z M 0.769531 0 " fill-opacity="1" fill-rule="nonzero"/><path fill="#ffffff" d="M 0.769531 0 L 133.367188 0 L 133.367188 44.199219 L 0.769531 44.199219 Z M 0.769531 0 " fill-opacity="1" fill-rule="nonzero"/></g><g clip-path="url(#e11233a491)"><g><g clip-path="url(#8943363a69)"><g clip-path="url(#d7eef25748)"><path fill="#000000" d="M 0.769531 0.078125 L 133.390625 0.078125 L 133.390625 28.972656 L 0.769531 28.972656 Z M 0.769531 0.078125 " fill-opacity="1" fill-rule="nonzero"/></g></g></g></g><g clip-path="url(#cd7d3a0dd6)"><g transform="matrix(1, 0, 0, 1, 61, 0)"><g clip-path="url(#bfc83a28d1)"><g clip-path="url(#b67858d170)"><path fill="#ffffff" d="M 0.757812 0.574219 L 71.621094 0.574219 L 71.621094 28.480469 L 0.757812 28.480469 Z M 0.757812 0.574219 " fill-opacity="1" fill-rule="nonzero"/></g></g></g></g><g clip-path="url(#600b9fa305)"><g transform="matrix(1, 0, 0, 1, 61, 28)"><g clip-path="url(#1758c63097)"><g clip-path="url(#055d3c085c)"><path fill="#ff751f" d="M 0.757812 0.972656 L 72.382812 0.972656 L 72.382812 16.292969 L 0.757812 16.292969 Z M 0.757812 0.972656 " fill-opacity="1" fill-rule="nonzero"/></g></g></g></g><g fill="#ffffff" fill-opacity="1"><g transform="translate(6.922511, 19.683878)"><g><path d="M 4.515625 -10.390625 C 6.023438 -10.390625 7.101562 -10.113281 7.75 -9.5625 C 8.394531 -9.007812 8.71875 -8.175781 8.71875 -7.0625 C 8.71875 -6.40625 8.554688 -5.816406 8.234375 -5.296875 C 7.910156 -4.773438 7.421875 -4.367188 6.765625 -4.078125 C 6.109375 -3.785156 5.300781 -3.640625 4.34375 -3.640625 L 3.734375 -3.640625 L 3.734375 -2.34375 C 3.734375 -1.945312 3.773438 -1.648438 3.859375 -1.453125 C 3.953125 -1.253906 4.109375 -1.117188 4.328125 -1.046875 C 4.546875 -0.972656 4.878906 -0.9375 5.328125 -0.9375 C 5.328125 -0.757812 5.296875 -0.585938 5.234375 -0.421875 C 5.179688 -0.253906 5.109375 -0.113281 5.015625 0 L 0.71875 0 C 0.613281 -0.113281 0.53125 -0.253906 0.46875 -0.421875 C 0.414062 -0.585938 0.390625 -0.757812 0.390625 -0.9375 C 0.722656 -0.9375 0.957031 -0.992188 1.09375 -1.109375 C 1.238281 -1.222656 1.3125 -1.414062 1.3125 -1.6875 L 1.3125 -8.609375 C 1.3125 -8.878906 1.238281 -9.070312 1.09375 -9.1875 C 0.957031 -9.300781 0.722656 -9.359375 0.390625 -9.359375 C 0.390625 -9.691406 0.492188 -10 0.703125 -10.28125 C 1.359375 -10.28125 2.253906 -10.304688 3.390625 -10.359375 C 3.960938 -10.378906 4.335938 -10.390625 4.515625 -10.390625 Z M 6.15625 -7.109375 C 6.15625 -7.734375 6.007812 -8.238281 5.71875 -8.625 C 5.4375 -9.019531 4.953125 -9.21875 4.265625 -9.21875 C 4.054688 -9.21875 3.878906 -9.203125 3.734375 -9.171875 L 3.734375 -4.84375 C 3.816406 -4.820312 3.941406 -4.8125 4.109375 -4.8125 C 4.921875 -4.8125 5.460938 -5.023438 5.734375 -5.453125 C 6.015625 -5.890625 6.15625 -6.441406 6.15625 -7.109375 Z M 6.15625 -7.109375 "/></g></g></g><g fill="#ffffff" fill-opacity="1"><g transform="translate(15.791972, 19.683878)"><g><path d="M 9.453125 -1.6875 C 9.453125 -1.40625 9.519531 -1.207031 9.65625 -1.09375 C 9.789062 -0.988281 10.015625 -0.9375 10.328125 -0.9375 C 10.328125 -0.757812 10.296875 -0.585938 10.234375 -0.421875 C 10.179688 -0.253906 10.101562 -0.113281 10 0 L 6.421875 0 C 6.328125 -0.113281 6.25 -0.253906 6.1875 -0.421875 C 6.125 -0.585938 6.09375 -0.757812 6.09375 -0.9375 C 6.425781 -0.9375 6.65625 -0.988281 6.78125 -1.09375 C 6.914062 -1.207031 6.984375 -1.40625 6.984375 -1.6875 L 6.984375 -4.609375 L 3.75 -4.609375 L 3.75 -1.6875 C 3.75 -1.40625 3.8125 -1.207031 3.9375 -1.09375 C 4.070312 -0.988281 4.300781 -0.9375 4.625 -0.9375 C 4.625 -0.757812 4.59375 -0.585938 4.53125 -0.421875 C 4.476562 -0.253906 4.398438 -0.113281 4.296875 0 L 0.703125 0 C 0.609375 -0.113281 0.53125 -0.253906 0.46875 -0.421875 C 0.414062 -0.585938 0.390625 -0.757812 0.390625 -0.9375 C 0.710938 -0.9375 0.9375 -0.988281 1.0625 -1.09375 C 1.195312 -1.207031 1.265625 -1.40625 1.265625 -1.6875 L 1.265625 -8.609375 C 1.265625 -8.878906 1.195312 -9.070312 1.0625 -9.1875 C 0.9375 -9.300781 0.710938 -9.359375 0.390625 -9.359375 C 0.390625 -9.523438 0.414062 -9.691406 0.46875 -9.859375 C 0.53125 -10.023438 0.609375 -10.164062 0.703125 -10.28125 L 4.296875 -10.28125 C 4.398438 -10.164062 4.476562 -10.023438 4.53125 -9.859375 C 4.59375 -9.691406 4.625 -9.523438 4.625 -9.359375 C 4.300781 -9.359375 4.070312 -9.300781 3.9375 -9.1875 C 3.8125 -9.070312 3.75 -8.878906 3.75 -8.609375 L 3.75 -5.84375 L 6.984375 -5.84375 L 6.984375 -8.609375 C 6.984375 -8.878906 6.914062 -9.070312 6.78125 -9.1875 C 6.644531 -9.300781 6.414062 -9.359375 6.09375 -9.359375 C 6.09375 -9.523438 6.125 -9.691406 6.1875 -9.859375 C 6.25 -10.023438 6.328125 -10.164062 6.421875 -10.28125 L 10 -10.28125 C 10.101562 -10.164062 10.179688 -10.023438 10.234375 -9.859375 C 10.296875 -9.691406 10.328125 -9.523438 10.328125 -9.359375 C 10.015625 -9.359375 9.789062 -9.300781 9.65625 -9.1875 C 9.519531 -9.070312 9.453125 -8.878906 9.453125 -8.609375 Z M 9.453125 -1.6875 "/></g></g></g><g fill="#ffffff" fill-opacity="1"><g transform="translate(26.503099, 19.683878)"><g><path d="M 8.84375 -4.015625 C 8.84375 -2.648438 8.519531 -1.609375 7.875 -0.890625 C 7.226562 -0.171875 6.273438 0.1875 5.015625 0.1875 C 3.734375 0.1875 2.726562 -0.160156 2 -0.859375 C 1.269531 -1.554688 0.90625 -2.5625 0.90625 -3.875 L 0.90625 -8.625 C 0.90625 -8.882812 0.835938 -9.070312 0.703125 -9.1875 C 0.566406 -9.300781 0.332031 -9.359375 0 -9.359375 C 0 -9.734375 0.113281 -10.039062 0.34375 -10.28125 L 4.015625 -10.28125 C 4.242188 -10.039062 4.359375 -9.734375 4.359375 -9.359375 C 4.023438 -9.359375 3.789062 -9.300781 3.65625 -9.1875 C 3.519531 -9.070312 3.453125 -8.882812 3.453125 -8.625 L 3.453125 -3.5625 C 3.453125 -2.851562 3.597656 -2.285156 3.890625 -1.859375 C 4.191406 -1.429688 4.65625 -1.21875 5.28125 -1.21875 C 5.894531 -1.21875 6.34375 -1.410156 6.625 -1.796875 C 6.90625 -2.191406 7.046875 -2.703125 7.046875 -3.328125 L 7.046875 -8.625 C 7.046875 -8.882812 6.960938 -9.070312 6.796875 -9.1875 C 6.640625 -9.300781 6.375 -9.359375 6 -9.359375 C 6 -9.753906 6.109375 -10.0625 6.328125 -10.28125 L 9.5625 -10.28125 C 9.78125 -10.039062 9.890625 -9.734375 9.890625 -9.359375 C 9.515625 -9.359375 9.242188 -9.300781 9.078125 -9.1875 C 8.921875 -9.070312 8.84375 -8.882812 8.84375 -8.625 Z M 8.84375 -4.015625 "/></g></g></g><g fill="#ffffff" fill-opacity="1"><g transform="translate(36.389152, 19.683878)"><g><path d="M 4.921875 0.1875 C 3.972656 0.1875 3.15625 -0.03125 2.46875 -0.46875 C 1.789062 -0.90625 1.269531 -1.523438 0.90625 -2.328125 C 0.550781 -3.128906 0.375 -4.0625 0.375 -5.125 C 0.375 -6.238281 0.554688 -7.191406 0.921875 -7.984375 C 1.296875 -8.785156 1.820312 -9.398438 2.5 -9.828125 C 3.1875 -10.253906 3.988281 -10.46875 4.90625 -10.46875 C 5.851562 -10.46875 6.671875 -10.242188 7.359375 -9.796875 C 8.046875 -9.359375 8.570312 -8.738281 8.9375 -7.9375 C 9.300781 -7.132812 9.484375 -6.195312 9.484375 -5.125 C 9.484375 -4.03125 9.296875 -3.082031 8.921875 -2.28125 C 8.546875 -1.476562 8.015625 -0.863281 7.328125 -0.4375 C 6.640625 -0.0195312 5.835938 0.1875 4.921875 0.1875 Z M 4.921875 -0.890625 C 5.460938 -0.890625 5.898438 -1.195312 6.234375 -1.8125 C 6.578125 -2.425781 6.75 -3.550781 6.75 -5.1875 C 6.75 -6.738281 6.59375 -7.820312 6.28125 -8.4375 C 5.96875 -9.0625 5.523438 -9.375 4.953125 -9.375 C 4.410156 -9.375 3.96875 -9.0625 3.625 -8.4375 C 3.289062 -7.820312 3.125 -6.703125 3.125 -5.078125 C 3.125 -3.523438 3.28125 -2.4375 3.59375 -1.8125 C 3.914062 -1.195312 4.359375 -0.890625 4.921875 -0.890625 Z M 4.921875 -0.890625 "/></g></g></g><g fill="#ffffff" fill-opacity="1"><g transform="translate(46.245744, 19.683878)"><g><path d="M 6.515625 -7 C 6.421875 -7.65625 6.238281 -8.179688 5.96875 -8.578125 C 5.695312 -8.972656 5.351562 -9.171875 4.9375 -9.171875 C 4.332031 -9.171875 3.851562 -8.882812 3.5 -8.3125 C 3.144531 -7.75 2.96875 -6.878906 2.96875 -5.703125 C 2.96875 -4.273438 3.242188 -3.234375 3.796875 -2.578125 C 4.347656 -1.921875 5.0625 -1.59375 5.9375 -1.59375 C 6.363281 -1.59375 6.738281 -1.671875 7.0625 -1.828125 C 7.382812 -1.984375 7.613281 -2.171875 7.75 -2.390625 C 7.863281 -2.296875 7.957031 -2.160156 8.03125 -1.984375 C 8.113281 -1.804688 8.15625 -1.644531 8.15625 -1.5 C 8.15625 -1.257812 8.03125 -1.003906 7.78125 -0.734375 C 7.53125 -0.472656 7.171875 -0.25 6.703125 -0.0625 C 6.234375 0.113281 5.6875 0.203125 5.0625 0.203125 C 4.195312 0.203125 3.410156 0.00390625 2.703125 -0.390625 C 1.992188 -0.796875 1.425781 -1.40625 1 -2.21875 C 0.582031 -3.039062 0.375 -4.03125 0.375 -5.1875 C 0.375 -6.3125 0.5625 -7.269531 0.9375 -8.0625 C 1.320312 -8.851562 1.859375 -9.445312 2.546875 -9.84375 C 3.242188 -10.25 4.054688 -10.453125 4.984375 -10.453125 C 5.191406 -10.453125 5.429688 -10.421875 5.703125 -10.359375 C 5.984375 -10.296875 6.226562 -10.21875 6.4375 -10.125 C 6.582031 -10.1875 6.796875 -10.253906 7.078125 -10.328125 C 7.367188 -10.398438 7.59375 -10.441406 7.75 -10.453125 C 8.03125 -9.753906 8.171875 -8.601562 8.171875 -7 Z M 6.515625 -7 "/></g></g></g><g fill="#000000" fill-opacity="1"><g transform="translate(67.379667, 19.683878)"><g><path d="M 3.09375 -1.6875 C 3.09375 -1.175781 3.453125 -0.921875 4.171875 -0.921875 C 4.171875 -0.578125 4.054688 -0.269531 3.828125 0 L 0.765625 0 C 0.546875 -0.257812 0.4375 -0.566406 0.4375 -0.921875 C 0.78125 -0.921875 1.035156 -0.976562 1.203125 -1.09375 C 1.367188 -1.21875 1.453125 -1.414062 1.453125 -1.6875 L 1.453125 -8.609375 C 1.453125 -9.109375 1.097656 -9.359375 0.390625 -9.359375 C 0.390625 -9.523438 0.414062 -9.691406 0.46875 -9.859375 C 0.53125 -10.023438 0.609375 -10.164062 0.703125 -10.28125 L 2.75 -10.28125 C 3.039062 -10.28125 3.328125 -10.171875 3.609375 -9.953125 C 3.890625 -9.734375 4.160156 -9.425781 4.421875 -9.03125 L 7.765625 -3.75 L 7.765625 -8.609375 C 7.765625 -8.867188 7.675781 -9.054688 7.5 -9.171875 C 7.320312 -9.296875 7.0625 -9.359375 6.71875 -9.359375 C 6.71875 -9.535156 6.742188 -9.703125 6.796875 -9.859375 C 6.859375 -10.023438 6.945312 -10.164062 7.0625 -10.28125 L 10.203125 -10.28125 C 10.304688 -10.164062 10.382812 -10.023438 10.4375 -9.859375 C 10.5 -9.691406 10.53125 -9.523438 10.53125 -9.359375 C 10.195312 -9.359375 9.941406 -9.296875 9.765625 -9.171875 C 9.597656 -9.054688 9.515625 -8.867188 9.515625 -8.609375 L 9.515625 0.09375 L 8.921875 0.09375 C 8.441406 0.09375 8.085938 0.03125 7.859375 -0.09375 C 7.640625 -0.21875 7.425781 -0.429688 7.21875 -0.734375 L 3.09375 -7 Z M 3.09375 -1.6875 "/></g></g></g><g fill="#000000" fill-opacity="1"><g transform="translate(78.046585, 19.683878)"><g><path d="M 5.453125 0.203125 C 4.421875 0.203125 3.519531 -0.015625 2.75 -0.453125 C 1.988281 -0.898438 1.398438 -1.515625 0.984375 -2.296875 C 0.578125 -3.085938 0.375 -3.988281 0.375 -5 C 0.375 -6.175781 0.578125 -7.171875 0.984375 -7.984375 C 1.390625 -8.796875 1.953125 -9.410156 2.671875 -9.828125 C 3.398438 -10.242188 4.242188 -10.453125 5.203125 -10.453125 C 5.816406 -10.453125 6.410156 -10.34375 6.984375 -10.125 C 7.128906 -10.1875 7.34375 -10.253906 7.625 -10.328125 C 7.90625 -10.398438 8.125 -10.441406 8.28125 -10.453125 C 8.5625 -9.722656 8.703125 -8.609375 8.703125 -7.109375 L 7.28125 -7.109375 C 7.175781 -7.742188 6.929688 -8.234375 6.546875 -8.578125 C 6.160156 -8.921875 5.695312 -9.09375 5.15625 -9.09375 C 4.507812 -9.09375 4 -8.8125 3.625 -8.25 C 3.257812 -7.695312 3.078125 -6.738281 3.078125 -5.375 C 3.078125 -3.863281 3.257812 -2.789062 3.625 -2.15625 C 3.988281 -1.53125 4.546875 -1.21875 5.296875 -1.21875 C 5.566406 -1.21875 5.796875 -1.25 5.984375 -1.3125 C 6.171875 -1.375 6.328125 -1.472656 6.453125 -1.609375 L 6.453125 -3.28125 C 6.453125 -3.539062 6.34375 -3.722656 6.125 -3.828125 C 5.90625 -3.941406 5.554688 -4 5.078125 -4 C 5.078125 -4.175781 5.113281 -4.382812 5.1875 -4.625 C 5.257812 -4.863281 5.34375 -5.035156 5.4375 -5.140625 L 8.625 -5.140625 C 9 -5.140625 9.257812 -5.023438 9.40625 -4.796875 C 9.5625 -4.578125 9.640625 -4.363281 9.640625 -4.15625 C 9.640625 -4.050781 9.613281 -3.960938 9.5625 -3.890625 C 9.207031 -3.890625 8.929688 -3.847656 8.734375 -3.765625 L 8.734375 -2.078125 C 8.734375 -1.765625 8.789062 -1.546875 8.90625 -1.421875 C 8.96875 -1.347656 9 -1.257812 9 -1.15625 C 9 -0.976562 8.835938 -0.78125 8.515625 -0.5625 C 8.191406 -0.34375 7.753906 -0.160156 7.203125 -0.015625 C 6.660156 0.128906 6.078125 0.203125 5.453125 0.203125 Z M 5.453125 0.203125 "/></g></g></g><g fill="#000000" fill-opacity="1"><g transform="translate(87.829506, 19.683878)"><g><path d="M 8.84375 -4.015625 C 8.84375 -2.648438 8.519531 -1.609375 7.875 -0.890625 C 7.226562 -0.171875 6.273438 0.1875 5.015625 0.1875 C 3.734375 0.1875 2.726562 -0.160156 2 -0.859375 C 1.269531 -1.554688 0.90625 -2.5625 0.90625 -3.875 L 0.90625 -8.625 C 0.90625 -8.882812 0.835938 -9.070312 0.703125 -9.1875 C 0.566406 -9.300781 0.332031 -9.359375 0 -9.359375 C 0 -9.734375 0.113281 -10.039062 0.34375 -10.28125 L 4.015625 -10.28125 C 4.242188 -10.039062 4.359375 -9.734375 4.359375 -9.359375 C 4.023438 -9.359375 3.789062 -9.300781 3.65625 -9.1875 C 3.519531 -9.070312 3.453125 -8.882812 3.453125 -8.625 L 3.453125 -3.5625 C 3.453125 -2.851562 3.597656 -2.285156 3.890625 -1.859375 C 4.191406 -1.429688 4.65625 -1.21875 5.28125 -1.21875 C 5.894531 -1.21875 6.34375 -1.410156 6.625 -1.796875 C 6.90625 -2.191406 7.046875 -2.703125 7.046875 -3.328125 L 7.046875 -8.625 C 7.046875 -8.882812 6.960938 -9.070312 6.796875 -9.1875 C 6.640625 -9.300781 6.375 -9.359375 6 -9.359375 C 6 -9.753906 6.109375 -10.0625 6.328125 -10.28125 L 9.5625 -10.28125 C 9.78125 -10.039062 9.890625 -9.734375 9.890625 -9.359375 C 9.515625 -9.359375 9.242188 -9.300781 9.078125 -9.1875 C 8.921875 -9.070312 8.84375 -8.882812 8.84375 -8.625 Z M 8.84375 -4.015625 "/></g></g></g><g fill="#000000" fill-opacity="1"><g transform="translate(97.420896, 19.683878)"><g><path d="M 9.53125 -10.28125 C 9.769531 -10.03125 9.890625 -9.722656 9.890625 -9.359375 C 9.640625 -9.359375 9.453125 -9.332031 9.328125 -9.28125 C 9.210938 -9.238281 9.113281 -9.171875 9.03125 -9.078125 C 8.957031 -8.992188 8.863281 -8.84375 8.75 -8.625 L 6.1875 -3.96875 L 6.1875 -1.6875 C 6.1875 -1.425781 6.320312 -1.234375 6.59375 -1.109375 C 6.875 -0.992188 7.210938 -0.9375 7.609375 -0.9375 C 7.609375 -0.757812 7.578125 -0.585938 7.515625 -0.421875 C 7.453125 -0.253906 7.375 -0.113281 7.28125 0 L 2.84375 0 C 2.75 -0.113281 2.671875 -0.253906 2.609375 -0.421875 C 2.546875 -0.585938 2.515625 -0.757812 2.515625 -0.9375 C 2.890625 -0.9375 3.207031 -0.992188 3.46875 -1.109375 C 3.738281 -1.234375 3.875 -1.425781 3.875 -1.6875 L 3.875 -3.625 L 0.9375 -8.703125 C 0.832031 -8.890625 0.675781 -9.046875 0.46875 -9.171875 C 0.257812 -9.296875 0.0546875 -9.359375 -0.140625 -9.359375 C -0.140625 -9.722656 -0.0234375 -10.03125 0.203125 -10.28125 L 4.1875 -10.28125 C 4.40625 -10.039062 4.515625 -9.734375 4.515625 -9.359375 C 3.929688 -9.359375 3.640625 -9.164062 3.640625 -8.78125 C 3.640625 -8.601562 3.71875 -8.359375 3.875 -8.046875 L 5.296875 -5.375 L 6.90625 -8.421875 C 6.957031 -8.523438 6.984375 -8.617188 6.984375 -8.703125 C 6.984375 -8.878906 6.894531 -9.03125 6.71875 -9.15625 C 6.550781 -9.289062 6.347656 -9.359375 6.109375 -9.359375 C 6.109375 -9.734375 6.222656 -10.039062 6.453125 -10.28125 Z M 9.53125 -10.28125 "/></g></g></g><g fill="#000000" fill-opacity="1"><g transform="translate(107.159619, 19.683878)"><g><path d="M 8.828125 -3.109375 C 8.828125 -2.785156 8.75 -2.207031 8.59375 -1.375 C 8.4375 -0.539062 8.289062 -0.00390625 8.15625 0.234375 C 8 0.191406 7.796875 0.113281 7.546875 0 L 0.71875 0 C 0.5 -0.289062 0.390625 -0.597656 0.390625 -0.921875 C 0.722656 -0.921875 0.96875 -0.976562 1.125 -1.09375 C 1.28125 -1.21875 1.359375 -1.414062 1.359375 -1.6875 L 1.359375 -8.609375 C 1.359375 -8.867188 1.28125 -9.054688 1.125 -9.171875 C 0.976562 -9.296875 0.734375 -9.359375 0.390625 -9.359375 C 0.390625 -9.679688 0.503906 -9.988281 0.734375 -10.28125 L 6.453125 -10.28125 C 6.617188 -10.363281 6.8125 -10.425781 7.03125 -10.46875 C 7.25 -10.507812 7.453125 -10.53125 7.640625 -10.53125 C 7.796875 -10.25 7.957031 -9.859375 8.125 -9.359375 C 8.300781 -8.859375 8.390625 -8.492188 8.390625 -8.265625 C 8.265625 -8.160156 8.0625 -8.046875 7.78125 -7.921875 C 7.5 -7.804688 7.253906 -7.726562 7.046875 -7.6875 C 6.910156 -8.050781 6.707031 -8.363281 6.4375 -8.625 C 6.164062 -8.894531 5.847656 -9.03125 5.484375 -9.03125 L 3.8125 -9.03125 L 3.8125 -5.921875 L 4.875 -5.921875 C 5.507812 -5.921875 5.828125 -6.28125 5.828125 -7 C 6.273438 -7 6.675781 -6.894531 7.03125 -6.6875 L 7.03125 -3.953125 C 6.875 -3.847656 6.691406 -3.769531 6.484375 -3.71875 C 6.273438 -3.664062 6.0625 -3.640625 5.84375 -3.640625 C 5.84375 -4.015625 5.753906 -4.296875 5.578125 -4.484375 C 5.398438 -4.671875 5.171875 -4.765625 4.890625 -4.765625 L 3.8125 -4.765625 L 3.8125 -1.296875 L 5.59375 -1.296875 C 6.007812 -1.296875 6.367188 -1.46875 6.671875 -1.8125 C 6.972656 -2.164062 7.164062 -2.597656 7.25 -3.109375 Z M 8.828125 -3.109375 "/></g></g></g><g fill="#000000" fill-opacity="1"><g transform="translate(116.220609, 19.683878)"><g><path d="M 3.09375 -1.6875 C 3.09375 -1.175781 3.453125 -0.921875 4.171875 -0.921875 C 4.171875 -0.578125 4.054688 -0.269531 3.828125 0 L 0.765625 0 C 0.546875 -0.257812 0.4375 -0.566406 0.4375 -0.921875 C 0.78125 -0.921875 1.035156 -0.976562 1.203125 -1.09375 C 1.367188 -1.21875 1.453125 -1.414062 1.453125 -1.6875 L 1.453125 -8.609375 C 1.453125 -9.109375 1.097656 -9.359375 0.390625 -9.359375 C 0.390625 -9.523438 0.414062 -9.691406 0.46875 -9.859375 C 0.53125 -10.023438 0.609375 -10.164062 0.703125 -10.28125 L 2.75 -10.28125 C 3.039062 -10.28125 3.328125 -10.171875 3.609375 -9.953125 C 3.890625 -9.734375 4.160156 -9.425781 4.421875 -9.03125 L 7.765625 -3.75 L 7.765625 -8.609375 C 7.765625 -8.867188 7.675781 -9.054688 7.5 -9.171875 C 7.320312 -9.296875 7.0625 -9.359375 6.71875 -9.359375 C 6.71875 -9.535156 6.742188 -9.703125 6.796875 -9.859375 C 6.859375 -10.023438 6.945312 -10.164062 7.0625 -10.28125 L 10.203125 -10.28125 C 10.304688 -10.164062 10.382812 -10.023438 10.4375 -9.859375 C 10.5 -9.691406 10.53125 -9.523438 10.53125 -9.359375 C 10.195312 -9.359375 9.941406 -9.296875 9.765625 -9.171875 C 9.597656 -9.054688 9.515625 -8.867188 9.515625 -8.609375 L 9.515625 0.09375 L 8.921875 0.09375 C 8.441406 0.09375 8.085938 0.03125 7.859375 -0.09375 C 7.640625 -0.21875 7.425781 -0.429688 7.21875 -0.734375 L 3.09375 -7 Z M 3.09375 -1.6875 "/></g></g></g><g transform="matrix(1, 0, 0, 1, 71, 29)"><g clip-path="url(#68769242d5)"><g clip-path="url(#18f1cc6d0e)"><g fill="#ffffff" fill-opacity="1"><g transform="translate(0.0963949, 9.837065)"><g><path d="M 0.984375 0.03125 C 0.796875 0.03125 0.625 -0.0351562 0.46875 -0.171875 C 0.320312 -0.316406 0.25 -0.554688 0.25 -0.890625 C 0.25 -1.109375 0.28125 -1.351562 0.34375 -1.625 C 0.414062 -1.894531 0.492188 -2.171875 0.578125 -2.453125 C 0.671875 -2.742188 0.765625 -3.023438 0.859375 -3.296875 C 0.953125 -3.566406 1.03125 -3.8125 1.09375 -4.03125 C 1.15625 -4.25 1.1875 -4.421875 1.1875 -4.546875 C 1.1875 -4.703125 1.125 -4.78125 1 -4.78125 C 0.863281 -4.78125 0.734375 -4.703125 0.609375 -4.546875 C 0.492188 -4.390625 0.363281 -4.171875 0.21875 -3.890625 L 0.171875 -3.90625 C 0.171875 -4.332031 0.285156 -4.707031 0.515625 -5.03125 C 0.742188 -5.351562 1.050781 -5.601562 1.4375 -5.78125 C 1.832031 -5.957031 2.273438 -6.046875 2.765625 -6.046875 C 3.253906 -6.046875 3.648438 -5.960938 3.953125 -5.796875 C 4.253906 -5.628906 4.476562 -5.410156 4.625 -5.140625 C 4.769531 -4.878906 4.84375 -4.597656 4.84375 -4.296875 C 4.84375 -4.035156 4.796875 -3.773438 4.703125 -3.515625 C 4.609375 -3.265625 4.472656 -3.035156 4.296875 -2.828125 C 4.117188 -2.617188 3.90625 -2.445312 3.65625 -2.3125 C 3.414062 -2.1875 3.148438 -2.125 2.859375 -2.125 C 2.554688 -2.125 2.242188 -2.203125 1.921875 -2.359375 C 1.847656 -2.085938 1.785156 -1.8125 1.734375 -1.53125 C 1.679688 -1.257812 1.65625 -0.976562 1.65625 -0.6875 C 1.65625 -0.539062 1.660156 -0.394531 1.671875 -0.25 C 1.578125 -0.15625 1.46875 -0.0820312 1.34375 -0.03125 C 1.21875 0.0078125 1.097656 0.03125 0.984375 0.03125 Z M 2.296875 -2.953125 C 2.515625 -2.953125 2.707031 -3.015625 2.875 -3.140625 C 3.039062 -3.265625 3.171875 -3.421875 3.265625 -3.609375 C 3.359375 -3.796875 3.40625 -3.988281 3.40625 -4.1875 C 3.40625 -4.40625 3.332031 -4.601562 3.1875 -4.78125 C 3.039062 -4.957031 2.800781 -5.046875 2.46875 -5.046875 C 2.425781 -5.046875 2.375 -5.039062 2.3125 -5.03125 C 2.257812 -5.03125 2.203125 -5.023438 2.140625 -5.015625 C 2.179688 -4.878906 2.207031 -4.742188 2.21875 -4.609375 C 2.238281 -4.472656 2.25 -4.34375 2.25 -4.21875 C 2.25 -4 2.226562 -3.785156 2.1875 -3.578125 C 2.15625 -3.378906 2.117188 -3.179688 2.078125 -2.984375 C 2.148438 -2.960938 2.222656 -2.953125 2.296875 -2.953125 Z M 2.296875 -2.953125 "/></g></g></g></g><g fill="#ffffff" fill-opacity="1"><g transform="translate(4.78008, 9.837065)"><g><path d="M 2.015625 0.0625 C 1.617188 0.0625 1.285156 -0.015625 1.015625 -0.171875 C 0.753906 -0.335938 0.554688 -0.554688 0.421875 -0.828125 C 0.296875 -1.097656 0.234375 -1.382812 0.234375 -1.6875 C 0.234375 -1.976562 0.285156 -2.269531 0.390625 -2.5625 C 0.503906 -2.863281 0.671875 -3.132812 0.890625 -3.375 C 1.109375 -3.613281 1.375 -3.804688 1.6875 -3.953125 C 2 -4.109375 2.347656 -4.1875 2.734375 -4.1875 C 3.222656 -4.1875 3.578125 -4.078125 3.796875 -3.859375 C 4.023438 -3.640625 4.140625 -3.375 4.140625 -3.0625 C 4.140625 -2.800781 4.066406 -2.554688 3.921875 -2.328125 C 3.785156 -2.109375 3.597656 -1.929688 3.359375 -1.796875 C 3.128906 -1.660156 2.878906 -1.59375 2.609375 -1.59375 C 2.460938 -1.59375 2.316406 -1.613281 2.171875 -1.65625 C 2.023438 -1.707031 1.878906 -1.78125 1.734375 -1.875 C 1.765625 -1.53125 1.863281 -1.28125 2.03125 -1.125 C 2.195312 -0.976562 2.398438 -0.90625 2.640625 -0.90625 C 2.804688 -0.90625 2.96875 -0.9375 3.125 -1 C 3.289062 -1.0625 3.441406 -1.140625 3.578125 -1.234375 C 3.722656 -1.335938 3.835938 -1.445312 3.921875 -1.5625 L 3.96875 -1.53125 C 3.96875 -1.238281 3.910156 -0.992188 3.796875 -0.796875 C 3.679688 -0.597656 3.523438 -0.429688 3.328125 -0.296875 C 3.140625 -0.171875 2.929688 -0.078125 2.703125 -0.015625 C 2.472656 0.0351562 2.242188 0.0625 2.015625 0.0625 Z M 2.21875 -2.171875 C 2.382812 -2.171875 2.523438 -2.21875 2.640625 -2.3125 C 2.753906 -2.414062 2.835938 -2.535156 2.890625 -2.671875 C 2.941406 -2.816406 2.96875 -2.941406 2.96875 -3.046875 C 2.96875 -3.171875 2.929688 -3.273438 2.859375 -3.359375 C 2.785156 -3.441406 2.6875 -3.484375 2.5625 -3.484375 C 2.46875 -3.484375 2.359375 -3.445312 2.234375 -3.375 C 2.117188 -3.3125 2.015625 -3.191406 1.921875 -3.015625 C 1.828125 -2.835938 1.765625 -2.597656 1.734375 -2.296875 C 1.910156 -2.210938 2.070312 -2.171875 2.21875 -2.171875 Z M 2.21875 -2.171875 "/></g></g></g><g fill="#ffffff" fill-opacity="1"><g transform="translate(9.07628, 9.837065)"><g><path d="M 1.21875 0.03125 C 1.019531 0.03125 0.84375 -0.046875 0.6875 -0.203125 C 0.53125 -0.367188 0.453125 -0.601562 0.453125 -0.90625 C 0.453125 -1.039062 0.46875 -1.195312 0.5 -1.375 C 0.53125 -1.5625 0.566406 -1.75 0.609375 -1.9375 C 0.660156 -2.132812 0.703125 -2.316406 0.734375 -2.484375 C 0.765625 -2.648438 0.78125 -2.785156 0.78125 -2.890625 C 0.78125 -3.003906 0.757812 -3.097656 0.71875 -3.171875 C 0.675781 -3.242188 0.625 -3.28125 0.5625 -3.28125 C 0.457031 -3.28125 0.347656 -3.207031 0.234375 -3.0625 L 0.1875 -3.09375 C 0.1875 -3.175781 0.207031 -3.28125 0.25 -3.40625 C 0.289062 -3.53125 0.359375 -3.644531 0.453125 -3.75 C 0.546875 -3.863281 0.664062 -3.957031 0.8125 -4.03125 C 0.957031 -4.113281 1.128906 -4.15625 1.328125 -4.15625 C 1.617188 -4.15625 1.828125 -4.070312 1.953125 -3.90625 C 2.085938 -3.738281 2.15625 -3.535156 2.15625 -3.296875 C 2.15625 -3.265625 2.15625 -3.226562 2.15625 -3.1875 C 2.15625 -3.144531 2.148438 -3.101562 2.140625 -3.0625 C 2.335938 -3.414062 2.546875 -3.6875 2.765625 -3.875 C 2.984375 -4.070312 3.1875 -4.171875 3.375 -4.171875 C 3.550781 -4.171875 3.679688 -4.097656 3.765625 -3.953125 C 3.847656 -3.816406 3.890625 -3.65625 3.890625 -3.46875 C 3.890625 -3.289062 3.851562 -3.109375 3.78125 -2.921875 C 3.707031 -2.742188 3.601562 -2.59375 3.46875 -2.46875 C 3.34375 -2.351562 3.179688 -2.300781 2.984375 -2.3125 L 2.953125 -2.328125 C 2.941406 -2.472656 2.894531 -2.582031 2.8125 -2.65625 C 2.726562 -2.738281 2.628906 -2.78125 2.515625 -2.78125 C 2.367188 -2.78125 2.226562 -2.707031 2.09375 -2.5625 C 1.96875 -2.414062 1.90625 -2.203125 1.90625 -1.921875 C 1.90625 -1.753906 1.921875 -1.570312 1.953125 -1.375 C 1.992188 -1.175781 2.015625 -1.003906 2.015625 -0.859375 C 2.015625 -0.703125 1.976562 -0.550781 1.90625 -0.40625 C 1.832031 -0.269531 1.734375 -0.160156 1.609375 -0.078125 C 1.484375 -0.00390625 1.351562 0.03125 1.21875 0.03125 Z M 1.21875 0.03125 "/></g></g></g><g fill="#ffffff" fill-opacity="1"><g transform="translate(12.795221, 9.837065)"><g><path d="M 1.65625 0.078125 C 1.3125 0.078125 1.023438 0.03125 0.796875 -0.0625 C 0.578125 -0.15625 0.410156 -0.273438 0.296875 -0.421875 C 0.179688 -0.566406 0.125 -0.710938 0.125 -0.859375 C 0.125 -1.078125 0.21875 -1.265625 0.40625 -1.421875 C 0.59375 -1.585938 0.847656 -1.671875 1.171875 -1.671875 C 1.171875 -1.390625 1.207031 -1.164062 1.28125 -1 C 1.351562 -0.832031 1.441406 -0.710938 1.546875 -0.640625 C 1.660156 -0.566406 1.769531 -0.53125 1.875 -0.53125 C 2.007812 -0.53125 2.117188 -0.566406 2.203125 -0.640625 C 2.285156 -0.710938 2.328125 -0.804688 2.328125 -0.921875 C 2.328125 -1.066406 2.242188 -1.195312 2.078125 -1.3125 C 1.921875 -1.4375 1.71875 -1.566406 1.46875 -1.703125 C 1.34375 -1.785156 1.203125 -1.875 1.046875 -1.96875 C 0.898438 -2.070312 0.773438 -2.195312 0.671875 -2.34375 C 0.566406 -2.488281 0.515625 -2.664062 0.515625 -2.875 C 0.515625 -3.082031 0.578125 -3.269531 0.703125 -3.4375 C 0.828125 -3.601562 0.988281 -3.742188 1.1875 -3.859375 C 1.394531 -3.972656 1.617188 -4.054688 1.859375 -4.109375 C 2.097656 -4.171875 2.328125 -4.203125 2.546875 -4.203125 C 2.972656 -4.203125 3.289062 -4.113281 3.5 -3.9375 C 3.71875 -3.769531 3.828125 -3.59375 3.828125 -3.40625 C 3.828125 -3.238281 3.742188 -3.085938 3.578125 -2.953125 C 3.410156 -2.816406 3.160156 -2.75 2.828125 -2.75 C 2.828125 -3.03125 2.765625 -3.234375 2.640625 -3.359375 C 2.523438 -3.492188 2.398438 -3.5625 2.265625 -3.5625 C 2.160156 -3.5625 2.070312 -3.53125 2 -3.46875 C 1.9375 -3.40625 1.90625 -3.316406 1.90625 -3.203125 C 1.90625 -3.078125 1.945312 -2.960938 2.03125 -2.859375 C 2.125 -2.765625 2.234375 -2.679688 2.359375 -2.609375 C 2.492188 -2.535156 2.628906 -2.46875 2.765625 -2.40625 C 2.953125 -2.3125 3.128906 -2.210938 3.296875 -2.109375 C 3.460938 -2.015625 3.597656 -1.90625 3.703125 -1.78125 C 3.804688 -1.65625 3.859375 -1.5 3.859375 -1.3125 C 3.859375 -1.070312 3.753906 -0.84375 3.546875 -0.625 C 3.347656 -0.414062 3.082031 -0.242188 2.75 -0.109375 C 2.414062 0.015625 2.050781 0.078125 1.65625 0.078125 Z M 1.65625 0.078125 "/></g></g></g><g fill="#ffffff" fill-opacity="1"><g transform="translate(16.877024, 9.837065)"><g><path d="M 2.046875 0.0625 C 1.628906 0.0625 1.285156 -0.0195312 1.015625 -0.1875 C 0.753906 -0.351562 0.554688 -0.570312 0.421875 -0.84375 C 0.296875 -1.113281 0.234375 -1.40625 0.234375 -1.71875 C 0.234375 -2.007812 0.285156 -2.300781 0.390625 -2.59375 C 0.492188 -2.882812 0.648438 -3.148438 0.859375 -3.390625 C 1.066406 -3.628906 1.316406 -3.820312 1.609375 -3.96875 C 1.910156 -4.113281 2.253906 -4.1875 2.640625 -4.1875 C 3.054688 -4.1875 3.394531 -4.097656 3.65625 -3.921875 C 3.925781 -3.753906 4.125 -3.535156 4.25 -3.265625 C 4.382812 -2.992188 4.453125 -2.703125 4.453125 -2.390625 C 4.453125 -2.097656 4.398438 -1.804688 4.296875 -1.515625 C 4.191406 -1.234375 4.035156 -0.972656 3.828125 -0.734375 C 3.617188 -0.492188 3.363281 -0.300781 3.0625 -0.15625 C 2.769531 -0.0078125 2.429688 0.0625 2.046875 0.0625 Z M 2.265625 -0.640625 C 2.410156 -0.640625 2.53125 -0.71875 2.625 -0.875 C 2.726562 -1.03125 2.804688 -1.226562 2.859375 -1.46875 C 2.910156 -1.707031 2.9375 -1.945312 2.9375 -2.1875 C 2.9375 -2.414062 2.914062 -2.625 2.875 -2.8125 C 2.832031 -3.007812 2.769531 -3.171875 2.6875 -3.296875 C 2.601562 -3.421875 2.5 -3.484375 2.375 -3.484375 C 2.226562 -3.484375 2.101562 -3.40625 2 -3.25 C 1.894531 -3.09375 1.816406 -2.894531 1.765625 -2.65625 C 1.722656 -2.425781 1.703125 -2.1875 1.703125 -1.9375 C 1.703125 -1.707031 1.722656 -1.492188 1.765625 -1.296875 C 1.804688 -1.109375 1.867188 -0.953125 1.953125 -0.828125 C 2.035156 -0.703125 2.140625 -0.640625 2.265625 -0.640625 Z M 2.265625 -0.640625 "/></g></g></g><g fill="#ffffff" fill-opacity="1"><g transform="translate(21.552541, 9.837065)"><g><path d="M 1.21875 0.03125 C 1.007812 0.03125 0.820312 -0.0507812 0.65625 -0.21875 C 0.488281 -0.382812 0.40625 -0.613281 0.40625 -0.90625 C 0.40625 -1.039062 0.425781 -1.195312 0.46875 -1.375 C 0.507812 -1.5625 0.550781 -1.75 0.59375 -1.9375 C 0.644531 -2.125 0.6875 -2.300781 0.71875 -2.46875 C 0.757812 -2.632812 0.78125 -2.769531 0.78125 -2.875 C 0.78125 -2.976562 0.757812 -3.0625 0.71875 -3.125 C 0.675781 -3.1875 0.617188 -3.21875 0.546875 -3.21875 C 0.453125 -3.21875 0.347656 -3.164062 0.234375 -3.0625 L 0.1875 -3.09375 C 0.1875 -3.175781 0.207031 -3.28125 0.25 -3.40625 C 0.289062 -3.53125 0.351562 -3.644531 0.4375 -3.75 C 0.53125 -3.863281 0.648438 -3.957031 0.796875 -4.03125 C 0.941406 -4.113281 1.113281 -4.15625 1.3125 -4.15625 C 1.601562 -4.15625 1.816406 -4.070312 1.953125 -3.90625 C 2.097656 -3.738281 2.171875 -3.535156 2.171875 -3.296875 C 2.171875 -3.203125 2.160156 -3.113281 2.140625 -3.03125 C 2.253906 -3.207031 2.394531 -3.378906 2.5625 -3.546875 C 2.738281 -3.722656 2.929688 -3.867188 3.140625 -3.984375 C 3.347656 -4.097656 3.5625 -4.15625 3.78125 -4.15625 C 4.039062 -4.15625 4.21875 -4.070312 4.3125 -3.90625 C 4.40625 -3.738281 4.453125 -3.535156 4.453125 -3.296875 C 4.453125 -3.054688 4.425781 -2.804688 4.375 -2.546875 C 4.320312 -2.285156 4.269531 -2.03125 4.21875 -1.78125 C 4.175781 -1.539062 4.15625 -1.335938 4.15625 -1.171875 C 4.15625 -0.953125 4.21875 -0.84375 4.34375 -0.84375 C 4.40625 -0.84375 4.460938 -0.863281 4.515625 -0.90625 C 4.566406 -0.945312 4.597656 -0.984375 4.609375 -1.015625 L 4.671875 -1 C 4.671875 -0.789062 4.613281 -0.609375 4.5 -0.453125 C 4.382812 -0.304688 4.238281 -0.1875 4.0625 -0.09375 C 3.894531 -0.0078125 3.726562 0.03125 3.5625 0.03125 C 3.34375 0.03125 3.148438 -0.0390625 2.984375 -0.1875 C 2.816406 -0.34375 2.734375 -0.585938 2.734375 -0.921875 C 2.734375 -1.117188 2.757812 -1.332031 2.8125 -1.5625 C 2.863281 -1.789062 2.914062 -2.015625 2.96875 -2.234375 C 3.019531 -2.453125 3.046875 -2.628906 3.046875 -2.765625 C 3.046875 -2.847656 3.03125 -2.910156 3 -2.953125 C 2.96875 -3.003906 2.914062 -3.03125 2.84375 -3.03125 C 2.707031 -3.03125 2.5625 -2.972656 2.40625 -2.859375 C 2.257812 -2.742188 2.132812 -2.585938 2.03125 -2.390625 C 1.925781 -2.203125 1.875 -1.988281 1.875 -1.75 C 1.875 -1.601562 1.890625 -1.460938 1.921875 -1.328125 C 1.960938 -1.191406 1.984375 -1.039062 1.984375 -0.875 C 1.984375 -0.582031 1.90625 -0.359375 1.75 -0.203125 C 1.59375 -0.046875 1.414062 0.03125 1.21875 0.03125 Z M 1.21875 0.03125 "/></g></g></g><g fill="#ffffff" fill-opacity="1"><g transform="translate(26.425973, 9.837065)"><g><path d="M 3.25 0.046875 C 3.0625 0.046875 2.894531 -0.015625 2.75 -0.140625 C 2.601562 -0.273438 2.53125 -0.484375 2.53125 -0.765625 C 2.53125 -0.796875 2.53125 -0.820312 2.53125 -0.84375 C 2.53125 -0.875 2.535156 -0.90625 2.546875 -0.9375 C 2.378906 -0.601562 2.191406 -0.359375 1.984375 -0.203125 C 1.773438 -0.046875 1.566406 0.03125 1.359375 0.03125 C 1.171875 0.03125 0.988281 -0.0351562 0.8125 -0.171875 C 0.644531 -0.304688 0.507812 -0.503906 0.40625 -0.765625 C 0.300781 -1.023438 0.25 -1.34375 0.25 -1.71875 C 0.25 -2.101562 0.300781 -2.445312 0.40625 -2.75 C 0.507812 -3.050781 0.648438 -3.304688 0.828125 -3.515625 C 1.003906 -3.734375 1.195312 -3.894531 1.40625 -4 C 1.613281 -4.101562 1.816406 -4.15625 2.015625 -4.15625 C 2.234375 -4.15625 2.429688 -4.085938 2.609375 -3.953125 C 2.785156 -3.816406 2.910156 -3.601562 2.984375 -3.3125 C 2.992188 -3.40625 3.003906 -3.488281 3.015625 -3.5625 C 3.023438 -3.644531 3.03125 -3.703125 3.03125 -3.734375 C 3.03125 -3.878906 3.101562 -3.988281 3.25 -4.0625 C 3.394531 -4.132812 3.554688 -4.171875 3.734375 -4.171875 C 3.890625 -4.171875 4.035156 -4.140625 4.171875 -4.078125 C 4.304688 -4.015625 4.398438 -3.910156 4.453125 -3.765625 L 4.46875 -3.71875 C 4.40625 -3.570312 4.335938 -3.394531 4.265625 -3.1875 C 4.203125 -2.976562 4.144531 -2.757812 4.09375 -2.53125 C 4.039062 -2.300781 3.992188 -2.078125 3.953125 -1.859375 C 3.921875 -1.640625 3.90625 -1.445312 3.90625 -1.28125 C 3.90625 -1.101562 3.925781 -0.976562 3.96875 -0.90625 C 4.007812 -0.84375 4.054688 -0.8125 4.109375 -0.8125 C 4.203125 -0.8125 4.285156 -0.875 4.359375 -1 L 4.4375 -0.96875 C 4.4375 -0.78125 4.375 -0.609375 4.25 -0.453125 C 4.125 -0.304688 3.96875 -0.1875 3.78125 -0.09375 C 3.601562 0 3.425781 0.046875 3.25 0.046875 Z M 1.90625 -1 C 2.050781 -1 2.207031 -1.128906 2.375 -1.390625 C 2.550781 -1.648438 2.703125 -2.015625 2.828125 -2.484375 C 2.835938 -2.535156 2.847656 -2.582031 2.859375 -2.625 C 2.867188 -2.675781 2.878906 -2.722656 2.890625 -2.765625 C 2.796875 -2.972656 2.703125 -3.117188 2.609375 -3.203125 C 2.515625 -3.285156 2.421875 -3.328125 2.328125 -3.328125 C 2.191406 -3.328125 2.0625 -3.253906 1.9375 -3.109375 C 1.820312 -2.960938 1.726562 -2.78125 1.65625 -2.5625 C 1.582031 -2.34375 1.546875 -2.125 1.546875 -1.90625 C 1.546875 -1.601562 1.578125 -1.375 1.640625 -1.21875 C 1.710938 -1.070312 1.800781 -1 1.90625 -1 Z M 1.90625 -1 "/></g></g></g><g fill="#ffffff" fill-opacity="1"><g transform="translate(31.076752, 9.837065)"><g><path d="M 1.1875 0.03125 C 1.039062 0.03125 0.894531 -0.00390625 0.75 -0.078125 C 0.613281 -0.148438 0.5 -0.269531 0.40625 -0.4375 C 0.320312 -0.601562 0.28125 -0.816406 0.28125 -1.078125 C 0.28125 -1.304688 0.3125 -1.570312 0.375 -1.875 C 0.4375 -2.1875 0.503906 -2.507812 0.578125 -2.84375 C 0.660156 -3.1875 0.734375 -3.515625 0.796875 -3.828125 C 0.859375 -4.148438 0.882812 -4.4375 0.875 -4.6875 C 0.875 -4.925781 0.847656 -5.09375 0.796875 -5.1875 L 0.796875 -5.21875 C 0.847656 -5.394531 0.953125 -5.53125 1.109375 -5.625 C 1.265625 -5.726562 1.425781 -5.78125 1.59375 -5.78125 C 1.789062 -5.78125 1.960938 -5.707031 2.109375 -5.5625 C 2.265625 -5.414062 2.34375 -5.171875 2.34375 -4.828125 C 2.34375 -4.640625 2.320312 -4.421875 2.28125 -4.171875 C 2.238281 -3.921875 2.1875 -3.65625 2.125 -3.375 C 2.0625 -3.09375 2 -2.8125 1.9375 -2.53125 C 1.875 -2.257812 1.816406 -2.007812 1.765625 -1.78125 C 1.722656 -1.550781 1.703125 -1.363281 1.703125 -1.21875 C 1.703125 -1.0625 1.722656 -0.953125 1.765625 -0.890625 C 1.816406 -0.835938 1.867188 -0.8125 1.921875 -0.8125 C 1.984375 -0.8125 2.039062 -0.832031 2.09375 -0.875 C 2.144531 -0.925781 2.179688 -0.96875 2.203125 -1 L 2.265625 -0.984375 C 2.265625 -0.785156 2.207031 -0.609375 2.09375 -0.453125 C 1.988281 -0.304688 1.851562 -0.1875 1.6875 -0.09375 C 1.53125 -0.0078125 1.363281 0.03125 1.1875 0.03125 Z M 1.1875 0.03125 "/></g></g></g><g fill="#ffffff" fill-opacity="1"><g transform="translate(33.600049, 9.837065)"><g/></g></g><g fill="#ffffff" fill-opacity="1"><g transform="translate(35.084339, 9.837065)"><g><path d="M 2.203125 0.0625 C 1.703125 0.0625 1.289062 -0.03125 0.96875 -0.21875 C 0.65625 -0.40625 0.5 -0.710938 0.5 -1.140625 C 0.5 -1.179688 0.5 -1.21875 0.5 -1.25 C 0.5 -1.289062 0.503906 -1.320312 0.515625 -1.34375 C 0.535156 -1.5 0.582031 -1.6875 0.65625 -1.90625 C 0.726562 -2.132812 0.8125 -2.375 0.90625 -2.625 C 1 -2.882812 1.085938 -3.140625 1.171875 -3.390625 C 1.253906 -3.640625 1.328125 -3.863281 1.390625 -4.0625 C 1.453125 -4.269531 1.484375 -4.441406 1.484375 -4.578125 C 1.484375 -4.710938 1.4375 -4.78125 1.34375 -4.78125 C 1.238281 -4.78125 1.109375 -4.703125 0.953125 -4.546875 C 0.796875 -4.390625 0.632812 -4.171875 0.46875 -3.890625 L 0.421875 -3.921875 C 0.421875 -4.285156 0.488281 -4.597656 0.625 -4.859375 C 0.769531 -5.117188 0.960938 -5.335938 1.203125 -5.515625 C 1.441406 -5.691406 1.707031 -5.816406 2 -5.890625 C 2.289062 -5.972656 2.582031 -6.015625 2.875 -6.015625 C 3.25 -6.015625 3.597656 -5.957031 3.921875 -5.84375 C 4.242188 -5.726562 4.507812 -5.554688 4.71875 -5.328125 C 4.925781 -5.109375 5.03125 -4.84375 5.03125 -4.53125 C 5.03125 -3.957031 4.675781 -3.507812 3.96875 -3.1875 C 4.382812 -3.09375 4.6875 -2.9375 4.875 -2.71875 C 5.070312 -2.5 5.171875 -2.253906 5.171875 -1.984375 C 5.171875 -1.753906 5.097656 -1.519531 4.953125 -1.28125 C 4.816406 -1.039062 4.617188 -0.816406 4.359375 -0.609375 C 4.097656 -0.410156 3.785156 -0.25 3.421875 -0.125 C 3.054688 0 2.648438 0.0625 2.203125 0.0625 Z M 2.53125 -3.4375 C 2.78125 -3.4375 3 -3.476562 3.1875 -3.5625 C 3.375 -3.644531 3.519531 -3.753906 3.625 -3.890625 C 3.738281 -4.023438 3.796875 -4.164062 3.796875 -4.3125 C 3.796875 -4.5 3.695312 -4.664062 3.5 -4.8125 C 3.300781 -4.957031 2.988281 -5.03125 2.5625 -5.03125 C 2.582031 -4.925781 2.597656 -4.816406 2.609375 -4.703125 C 2.617188 -4.597656 2.625 -4.5 2.625 -4.40625 C 2.625 -4.25 2.613281 -4.085938 2.59375 -3.921875 C 2.570312 -3.765625 2.550781 -3.601562 2.53125 -3.4375 Z M 2.4375 -0.953125 C 2.664062 -0.953125 2.867188 -1 3.046875 -1.09375 C 3.234375 -1.1875 3.378906 -1.304688 3.484375 -1.453125 C 3.585938 -1.609375 3.640625 -1.769531 3.640625 -1.9375 C 3.640625 -2.15625 3.535156 -2.359375 3.328125 -2.546875 C 3.117188 -2.734375 2.789062 -2.847656 2.34375 -2.890625 C 2.320312 -2.710938 2.273438 -2.523438 2.203125 -2.328125 C 2.140625 -2.140625 2.078125 -1.957031 2.015625 -1.78125 C 1.960938 -1.613281 1.9375 -1.460938 1.9375 -1.328125 C 1.9375 -1.210938 1.96875 -1.117188 2.03125 -1.046875 C 2.101562 -0.984375 2.238281 -0.953125 2.4375 -0.953125 Z M 2.4375 -0.953125 "/></g></g></g><g fill="#ffffff" fill-opacity="1"><g transform="translate(40.469009, 9.837065)"><g><path d="M 1.1875 0.03125 C 1.039062 0.03125 0.894531 -0.00390625 0.75 -0.078125 C 0.613281 -0.148438 0.5 -0.269531 0.40625 -0.4375 C 0.320312 -0.601562 0.28125 -0.816406 0.28125 -1.078125 C 0.28125 -1.304688 0.3125 -1.570312 0.375 -1.875 C 0.4375 -2.1875 0.503906 -2.507812 0.578125 -2.84375 C 0.660156 -3.1875 0.734375 -3.515625 0.796875 -3.828125 C 0.859375 -4.148438 0.882812 -4.4375 0.875 -4.6875 C 0.875 -4.925781 0.847656 -5.09375 0.796875 -5.1875 L 0.796875 -5.21875 C 0.847656 -5.394531 0.953125 -5.53125 1.109375 -5.625 C 1.265625 -5.726562 1.425781 -5.78125 1.59375 -5.78125 C 1.789062 -5.78125 1.960938 -5.707031 2.109375 -5.5625 C 2.265625 -5.414062 2.34375 -5.171875 2.34375 -4.828125 C 2.34375 -4.640625 2.320312 -4.421875 2.28125 -4.171875 C 2.238281 -3.921875 2.1875 -3.65625 2.125 -3.375 C 2.0625 -3.09375 2 -2.8125 1.9375 -2.53125 C 1.875 -2.257812 1.816406 -2.007812 1.765625 -1.78125 C 1.722656 -1.550781 1.703125 -1.363281 1.703125 -1.21875 C 1.703125 -1.0625 1.722656 -0.953125 1.765625 -0.890625 C 1.816406 -0.835938 1.867188 -0.8125 1.921875 -0.8125 C 1.984375 -0.8125 2.039062 -0.832031 2.09375 -0.875 C 2.144531 -0.925781 2.179688 -0.96875 2.203125 -1 L 2.265625 -0.984375 C 2.265625 -0.785156 2.207031 -0.609375 2.09375 -0.453125 C 1.988281 -0.304688 1.851562 -0.1875 1.6875 -0.09375 C 1.53125 -0.0078125 1.363281 0.03125 1.1875 0.03125 Z M 1.1875 0.03125 "/></g></g></g><g fill="#ffffff" fill-opacity="1"><g transform="translate(42.918077, 9.837065)"><g><path d="M 2.046875 0.0625 C 1.628906 0.0625 1.285156 -0.0195312 1.015625 -0.1875 C 0.753906 -0.351562 0.554688 -0.570312 0.421875 -0.84375 C 0.296875 -1.113281 0.234375 -1.40625 0.234375 -1.71875 C 0.234375 -2.007812 0.285156 -2.300781 0.390625 -2.59375 C 0.492188 -2.882812 0.648438 -3.148438 0.859375 -3.390625 C 1.066406 -3.628906 1.316406 -3.820312 1.609375 -3.96875 C 1.910156 -4.113281 2.253906 -4.1875 2.640625 -4.1875 C 3.054688 -4.1875 3.394531 -4.097656 3.65625 -3.921875 C 3.925781 -3.753906 4.125 -3.535156 4.25 -3.265625 C 4.382812 -2.992188 4.453125 -2.703125 4.453125 -2.390625 C 4.453125 -2.097656 4.398438 -1.804688 4.296875 -1.515625 C 4.191406 -1.234375 4.035156 -0.972656 3.828125 -0.734375 C 3.617188 -0.492188 3.363281 -0.300781 3.0625 -0.15625 C 2.769531 -0.0078125 2.429688 0.0625 2.046875 0.0625 Z M 2.265625 -0.640625 C 2.410156 -0.640625 2.53125 -0.71875 2.625 -0.875 C 2.726562 -1.03125 2.804688 -1.226562 2.859375 -1.46875 C 2.910156 -1.707031 2.9375 -1.945312 2.9375 -2.1875 C 2.9375 -2.414062 2.914062 -2.625 2.875 -2.8125 C 2.832031 -3.007812 2.769531 -3.171875 2.6875 -3.296875 C 2.601562 -3.421875 2.5 -3.484375 2.375 -3.484375 C 2.226562 -3.484375 2.101562 -3.40625 2 -3.25 C 1.894531 -3.09375 1.816406 -2.894531 1.765625 -2.65625 C 1.722656 -2.425781 1.703125 -2.1875 1.703125 -1.9375 C 1.703125 -1.707031 1.722656 -1.492188 1.765625 -1.296875 C 1.804688 -1.109375 1.867188 -0.953125 1.953125 -0.828125 C 2.035156 -0.703125 2.140625 -0.640625 2.265625 -0.640625 Z M 2.265625 -0.640625 "/></g></g></g><g fill="#ffffff" fill-opacity="1"><g transform="translate(47.568849, 9.837065)"><g><path d="M 2.25 1.65625 C 1.976562 1.65625 1.753906 1.570312 1.578125 1.40625 C 1.398438 1.25 1.3125 1.023438 1.3125 0.734375 C 1.3125 0.421875 1.425781 0.0507812 1.65625 -0.375 C 1.613281 -0.363281 1.570312 -0.351562 1.53125 -0.34375 C 1.5 -0.34375 1.460938 -0.34375 1.421875 -0.34375 C 1.097656 -0.34375 0.828125 -0.476562 0.609375 -0.75 C 0.390625 -1.03125 0.28125 -1.414062 0.28125 -1.90625 C 0.28125 -2.351562 0.367188 -2.75 0.546875 -3.09375 C 0.722656 -3.4375 0.941406 -3.703125 1.203125 -3.890625 C 1.472656 -4.085938 1.753906 -4.1875 2.046875 -4.1875 C 2.253906 -4.1875 2.441406 -4.132812 2.609375 -4.03125 C 2.773438 -3.925781 2.910156 -3.765625 3.015625 -3.546875 C 3.015625 -3.597656 3.015625 -3.644531 3.015625 -3.6875 C 3.015625 -3.726562 3.015625 -3.769531 3.015625 -3.8125 C 3.015625 -3.90625 3.085938 -3.984375 3.234375 -4.046875 C 3.378906 -4.109375 3.539062 -4.140625 3.71875 -4.140625 C 3.875 -4.140625 4.019531 -4.109375 4.15625 -4.046875 C 4.289062 -3.984375 4.382812 -3.878906 4.4375 -3.734375 L 4.453125 -3.6875 C 4.398438 -3.644531 4.351562 -3.5 4.3125 -3.25 C 4.28125 -3.007812 4.238281 -2.675781 4.1875 -2.25 C 4.15625 -1.976562 4.113281 -1.671875 4.0625 -1.328125 C 4.019531 -0.984375 3.953125 -0.632812 3.859375 -0.28125 C 3.773438 0.0625 3.664062 0.378906 3.53125 0.671875 C 3.394531 0.960938 3.222656 1.195312 3.015625 1.375 C 2.804688 1.5625 2.550781 1.65625 2.25 1.65625 Z M 1.984375 -1.28125 C 2.140625 -1.28125 2.316406 -1.410156 2.515625 -1.671875 C 2.710938 -1.941406 2.867188 -2.320312 2.984375 -2.8125 C 2.878906 -3.019531 2.773438 -3.171875 2.671875 -3.265625 C 2.578125 -3.359375 2.476562 -3.40625 2.375 -3.40625 C 2.226562 -3.40625 2.09375 -3.332031 1.96875 -3.1875 C 1.851562 -3.050781 1.757812 -2.875 1.6875 -2.65625 C 1.613281 -2.445312 1.578125 -2.234375 1.578125 -2.015625 C 1.578125 -1.785156 1.613281 -1.601562 1.6875 -1.46875 C 1.769531 -1.34375 1.867188 -1.28125 1.984375 -1.28125 Z M 1.875 0.703125 C 2.0625 0.703125 2.253906 0.519531 2.453125 0.15625 C 2.648438 -0.207031 2.785156 -0.722656 2.859375 -1.390625 C 2.441406 -0.828125 2.148438 -0.390625 1.984375 -0.078125 C 1.828125 0.222656 1.75 0.4375 1.75 0.5625 C 1.75 0.65625 1.789062 0.703125 1.875 0.703125 Z M 1.875 0.703125 "/></g></g></g></g></g></svg>