<svg width="152" height="50" viewBox="0 0 152 50" fill="none" xmlns="http://www.w3.org/2000/svg">
<g clip-path="url(#clip0_28_34)">
<path d="M70 0H0V32H70V0Z" fill="white"/>
<path d="M9.3999 24V9.60005H15.0599C15.9732 9.60005 16.7399 9.78672 17.3599 10.16C17.9799 10.5333 18.4466 11.0167 18.7599 11.61C19.0732 12.1967 19.2299 12.8167 19.2299 13.47C19.2299 14.2633 19.0332 14.9433 18.6399 15.51C18.2532 16.0767 17.7299 16.4633 17.0699 16.67L17.0499 16.18C17.9699 16.4067 18.6766 16.85 19.1699 17.51C19.6632 18.1633 19.9099 18.9267 19.9099 19.8C19.9099 20.6467 19.7399 21.3833 19.3999 22.01C19.0666 22.6367 18.5766 23.1267 17.9299 23.48C17.2899 23.8267 16.5132 24 15.5999 24H9.3999ZM11.5199 22.01H15.2799C15.7532 22.01 16.1766 21.92 16.5499 21.74C16.9299 21.56 17.2266 21.3033 17.4399 20.97C17.6599 20.63 17.7699 20.2267 17.7699 19.76C17.7699 19.3267 17.6732 18.9367 17.4799 18.59C17.2932 18.2367 17.0199 17.96 16.6599 17.76C16.3066 17.5533 15.8899 17.45 15.4099 17.45H11.5199V22.01ZM11.5199 15.48H15.0299C15.4166 15.48 15.7632 15.4033 16.0699 15.25C16.3832 15.09 16.6299 14.8633 16.8099 14.57C16.9966 14.27 17.0899 13.91 17.0899 13.49C17.0899 12.93 16.9032 12.47 16.5299 12.11C16.1566 11.75 15.6566 11.57 15.0299 11.57H11.5199V15.48ZM22.4999 24V9.60005H24.5899V22.03H31.1099V24H22.4999ZM38.8271 24.3C37.3871 24.3 36.1604 23.9867 35.1471 23.36C34.1338 22.7267 33.3571 21.8467 32.8171 20.72C32.2838 19.5933 32.0171 18.2867 32.0171 16.8C32.0171 15.3133 32.2838 14.0067 32.8171 12.88C33.3571 11.7533 34.1338 10.8767 35.1471 10.25C36.1604 9.61672 37.3871 9.30005 38.8271 9.30005C40.2604 9.30005 41.4838 9.61672 42.4971 10.25C43.5171 10.8767 44.2938 11.7533 44.8271 12.88C45.3604 14.0067 45.6271 15.3133 45.6271 16.8C45.6271 18.2867 45.3604 19.5933 44.8271 20.72C44.2938 21.8467 43.5171 22.7267 42.4971 23.36C41.4838 23.9867 40.2604 24.3 38.8271 24.3ZM38.8271 22.31C39.8471 22.3233 40.6938 22.1 41.3671 21.64C42.0471 21.1733 42.5571 20.5267 42.8971 19.7C43.2371 18.8667 43.4071 17.9 43.4071 16.8C43.4071 15.7 43.2371 14.74 42.8971 13.92C42.5571 13.0933 42.0471 12.45 41.3671 11.99C40.6938 11.53 39.8471 11.2967 38.8271 11.29C37.8071 11.2767 36.9571 11.5 36.2771 11.96C35.6038 12.42 35.0971 13.0667 34.7571 13.9C34.4171 14.7333 34.2438 15.7 34.2371 16.8C34.2304 17.9 34.3971 18.8633 34.7371 19.69C35.0771 20.51 35.5871 21.15 36.2671 21.61C36.9538 22.07 37.8071 22.3033 38.8271 22.31ZM53.9118 24.3C52.9451 24.3 52.0551 24.1333 51.2418 23.8C50.4284 23.46 49.7218 22.9667 49.1218 22.32C48.5218 21.6733 48.0551 20.8867 47.7218 19.96C47.3884 19.0333 47.2218 17.98 47.2218 16.8C47.2218 15.2467 47.5051 13.9133 48.0718 12.8C48.6384 11.68 49.4251 10.82 50.4318 10.22C51.4384 9.61338 52.5984 9.31005 53.9118 9.31005C55.6051 9.31005 56.9551 9.70338 57.9618 10.49C58.9751 11.2767 59.6651 12.3633 60.0318 13.75L57.9118 14.13C57.6184 13.27 57.1451 12.5833 56.4918 12.07C55.8384 11.5567 55.0184 11.2967 54.0318 11.29C53.0118 11.2833 52.1618 11.51 51.4818 11.97C50.8084 12.43 50.3018 13.0767 49.9618 13.91C49.6218 14.7367 49.4484 15.7 49.4418 16.8C49.4351 17.9 49.6018 18.8633 49.9418 19.69C50.2818 20.51 50.7918 21.15 51.4718 21.61C52.1584 22.07 53.0118 22.3033 54.0318 22.31C54.8518 22.3233 55.5551 22.1733 56.1418 21.86C56.7351 21.54 57.2051 21.0733 57.5518 20.46C57.8984 19.8467 58.1218 19.0933 58.2218 18.2H55.4218V16.52H60.4418C60.4551 16.64 60.4651 16.8 60.4718 17C60.4784 17.1933 60.4818 17.3167 60.4818 17.37C60.4818 18.7033 60.2251 19.8933 59.7118 20.94C59.1984 21.9867 58.4518 22.81 57.4718 23.41C56.4918 24.0033 55.3051 24.3 53.9118 24.3Z" fill="black"/>
<path d="M151.5 0.5H70.5V31.5H151.5V0.5Z" stroke="white"/>
<path d="M79.3999 24V9.60005H87.9299V11.69H81.4899V15.75H86.7299V17.85H81.4899V24H79.3999ZM96.1419 24.3C94.7019 24.3 93.4753 23.9867 92.4619 23.36C91.4486 22.7267 90.6719 21.8467 90.1319 20.72C89.5986 19.5933 89.3319 18.2867 89.3319 16.8C89.3319 15.3133 89.5986 14.0067 90.1319 12.88C90.6719 11.7533 91.4486 10.8767 92.4619 10.25C93.4753 9.61672 94.7019 9.30005 96.1419 9.30005C97.5753 9.30005 98.7986 9.61672 99.8119 10.25C100.832 10.8767 101.609 11.7533 102.142 12.88C102.675 14.0067 102.942 15.3133 102.942 16.8C102.942 18.2867 102.675 19.5933 102.142 20.72C101.609 21.8467 100.832 22.7267 99.8119 23.36C98.7986 23.9867 97.5753 24.3 96.1419 24.3ZM96.1419 22.31C97.1619 22.3233 98.0086 22.1 98.6819 21.64C99.3619 21.1733 99.8719 20.5267 100.212 19.7C100.552 18.8667 100.722 17.9 100.722 16.8C100.722 15.7 100.552 14.74 100.212 13.92C99.8719 13.0933 99.3619 12.45 98.6819 11.99C98.0086 11.53 97.1619 11.2967 96.1419 11.29C95.1219 11.2767 94.2719 11.5 93.5919 11.96C92.9186 12.42 92.4119 13.0667 92.0719 13.9C91.7319 14.7333 91.5586 15.7 91.5519 16.8C91.5453 17.9 91.7119 18.8633 92.0519 19.69C92.3919 20.51 92.9019 21.15 93.5819 21.61C94.2686 22.07 95.1219 22.3033 96.1419 22.31ZM105.337 24V9.60005H111.157C111.297 9.60005 111.47 9.60672 111.677 9.62005C111.883 9.62672 112.08 9.64672 112.267 9.68005C113.067 9.80672 113.733 10.08 114.267 10.5C114.807 10.92 115.21 11.45 115.477 12.09C115.743 12.73 115.877 13.4367 115.877 14.21C115.877 15.3567 115.583 16.3467 114.997 17.18C114.41 18.0067 113.53 18.5233 112.357 18.73L111.507 18.83H107.427V24H105.337ZM113.757 24L110.917 18.14L113.027 17.6L116.147 24H113.757ZM107.427 16.85H111.077C111.21 16.85 111.357 16.8433 111.517 16.83C111.683 16.8167 111.84 16.7933 111.987 16.76C112.413 16.66 112.757 16.4767 113.017 16.21C113.277 15.9367 113.463 15.6233 113.577 15.27C113.69 14.9167 113.747 14.5633 113.747 14.21C113.747 13.8567 113.69 13.5067 113.577 13.16C113.463 12.8067 113.277 12.4967 113.017 12.23C112.757 11.9567 112.413 11.77 111.987 11.67C111.84 11.63 111.683 11.6033 111.517 11.59C111.357 11.5767 111.21 11.57 111.077 11.57H107.427V16.85ZM124.635 24.3C123.668 24.3 122.778 24.1333 121.965 23.8C121.151 23.46 120.445 22.9667 119.845 22.32C119.245 21.6733 118.778 20.8867 118.445 19.96C118.111 19.0333 117.945 17.98 117.945 16.8C117.945 15.2467 118.228 13.9133 118.795 12.8C119.361 11.68 120.148 10.82 121.155 10.22C122.161 9.61338 123.321 9.31005 124.635 9.31005C126.328 9.31005 127.678 9.70338 128.685 10.49C129.698 11.2767 130.388 12.3633 130.755 13.75L128.635 14.13C128.341 13.27 127.868 12.5833 127.215 12.07C126.561 11.5567 125.741 11.2967 124.755 11.29C123.735 11.2833 122.885 11.51 122.205 11.97C121.531 12.43 121.025 13.0767 120.685 13.91C120.345 14.7367 120.171 15.7 120.165 16.8C120.158 17.9 120.325 18.8633 120.665 19.69C121.005 20.51 121.515 21.15 122.195 21.61C122.881 22.07 123.735 22.3033 124.755 22.31C125.575 22.3233 126.278 22.1733 126.865 21.86C127.458 21.54 127.928 21.0733 128.275 20.46C128.621 19.8467 128.845 19.0933 128.945 18.2H126.145V16.52H131.165C131.178 16.64 131.188 16.8 131.195 17C131.201 17.1933 131.205 17.3167 131.205 17.37C131.205 18.7033 130.948 19.8933 130.435 20.94C129.921 21.9867 129.175 22.81 128.195 23.41C127.215 24.0033 126.028 24.3 124.635 24.3ZM133.598 24V9.60005H142.798V11.57H135.688V15.61H141.598V17.58H135.688V22.03H142.798V24H133.598Z" fill="white"/>
<path d="M152 32H84V50H152V32Z" fill="#FF5500"/>
<path d="M90.4035 45L88.4092 38.4545H89.466L90.8808 43.4659H90.949L92.3467 38.4545H93.4206L94.8012 43.4489H94.8694L96.2842 38.4545H97.341L95.3467 45H94.3581L92.9262 39.9716H92.824L91.3921 45H90.4035ZM98.4306 45V38.4545H99.4362V45H98.4306ZM98.9419 37.3636C98.7459 37.3636 98.5769 37.2969 98.4348 37.1634C98.2956 37.0298 98.226 36.8693 98.226 36.6818C98.226 36.4943 98.2956 36.3338 98.4348 36.2003C98.5769 36.0668 98.7459 36 98.9419 36C99.1379 36 99.3056 36.0668 99.4448 36.2003C99.5868 36.3338 99.6578 36.4943 99.6578 36.6818C99.6578 36.8693 99.5868 37.0298 99.4448 37.1634C99.3056 37.2969 99.1379 37.3636 98.9419 37.3636ZM103.885 38.4545V39.3068H100.493V38.4545H103.885ZM101.481 36.8864H102.487V43.125C102.487 43.4091 102.528 43.6222 102.611 43.7642C102.696 43.9034 102.804 43.9972 102.934 44.0455C103.068 44.0909 103.209 44.1136 103.356 44.1136C103.467 44.1136 103.558 44.108 103.629 44.0966C103.7 44.0824 103.757 44.071 103.799 44.0625L104.004 44.9659C103.936 44.9915 103.841 45.017 103.719 45.0426C103.596 45.071 103.442 45.0852 103.254 45.0852C102.97 45.0852 102.692 45.0241 102.419 44.902C102.149 44.7798 101.924 44.5938 101.745 44.3438C101.569 44.0938 101.481 43.7784 101.481 43.3977V36.8864ZM106.304 41.0625V45H105.298V36.2727H106.304V39.4773H106.389C106.542 39.1392 106.773 38.8707 107.079 38.6719C107.389 38.4702 107.801 38.3693 108.315 38.3693C108.761 38.3693 109.152 38.4588 109.487 38.6378C109.822 38.8139 110.082 39.0852 110.267 39.4517C110.454 39.8153 110.548 40.2784 110.548 40.8409V45H109.542V40.9091C109.542 40.3892 109.407 39.9872 109.138 39.7031C108.871 39.4162 108.5 39.2727 108.025 39.2727C107.696 39.2727 107.4 39.3423 107.139 39.4815C106.88 39.6207 106.676 39.8239 106.525 40.0909C106.378 40.358 106.304 40.6818 106.304 41.0625ZM119.919 39.9205L119.016 40.1761C118.959 40.0256 118.875 39.8793 118.764 39.7372C118.657 39.5923 118.509 39.473 118.321 39.3793C118.134 39.2855 117.894 39.2386 117.601 39.2386C117.201 39.2386 116.867 39.331 116.6 39.5156C116.336 39.6974 116.203 39.929 116.203 40.2102C116.203 40.4602 116.294 40.6577 116.476 40.8026C116.658 40.9474 116.942 41.0682 117.328 41.1648L118.3 41.4034C118.885 41.5455 119.321 41.7628 119.608 42.0554C119.895 42.3452 120.039 42.7187 120.039 43.1761C120.039 43.5511 119.931 43.8864 119.715 44.1818C119.502 44.4773 119.203 44.7102 118.82 44.8807C118.436 45.0511 117.99 45.1364 117.482 45.1364C116.814 45.1364 116.262 44.9915 115.824 44.7017C115.387 44.4119 115.11 43.9886 114.993 43.4318L115.948 43.1932C116.039 43.5455 116.211 43.8097 116.463 43.9858C116.719 44.1619 117.053 44.25 117.465 44.25C117.934 44.25 118.306 44.1506 118.581 43.9517C118.86 43.75 118.999 43.5085 118.999 43.2273C118.999 43 118.919 42.8097 118.76 42.6562C118.601 42.5 118.357 42.3835 118.027 42.3068L116.936 42.0511C116.337 41.9091 115.897 41.6889 115.615 41.3906C115.337 41.0895 115.198 40.7131 115.198 40.2614C115.198 39.892 115.301 39.5653 115.509 39.2812C115.719 38.9972 116.005 38.7741 116.365 38.6122C116.729 38.4503 117.141 38.3693 117.601 38.3693C118.249 38.3693 118.757 38.5114 119.127 38.7955C119.499 39.0795 119.763 39.4545 119.919 39.9205ZM123.239 45.1534C122.824 45.1534 122.447 45.0753 122.109 44.919C121.771 44.7599 121.503 44.5312 121.304 44.233C121.105 43.9318 121.006 43.5682 121.006 43.142C121.006 42.767 121.08 42.4631 121.227 42.2301C121.375 41.9943 121.572 41.8097 121.82 41.6761C122.067 41.5426 122.339 41.4432 122.638 41.3778C122.939 41.3097 123.241 41.2557 123.545 41.2159C123.943 41.1648 124.266 41.1264 124.513 41.1009C124.763 41.0724 124.945 41.0256 125.058 40.9602C125.175 40.8949 125.233 40.7812 125.233 40.6193V40.5852C125.233 40.1648 125.118 39.8381 124.888 39.6051C124.66 39.3722 124.315 39.2557 123.852 39.2557C123.372 39.2557 122.996 39.3608 122.723 39.571C122.45 39.7812 122.259 40.0057 122.148 40.2443L121.193 39.9034C121.364 39.5057 121.591 39.196 121.875 38.9744C122.162 38.75 122.474 38.5937 122.812 38.5057C123.153 38.4148 123.489 38.3693 123.818 38.3693C124.028 38.3693 124.27 38.3949 124.543 38.446C124.818 38.4943 125.084 38.5952 125.339 38.7486C125.598 38.902 125.812 39.1335 125.983 39.4432C126.153 39.7528 126.239 40.1676 126.239 40.6875V45H125.233V44.1136H125.182C125.114 44.2557 125 44.4077 124.841 44.5696C124.682 44.7315 124.47 44.8693 124.206 44.983C123.942 45.0966 123.619 45.1534 123.239 45.1534ZM123.392 44.25C123.79 44.25 124.125 44.1719 124.398 44.0156C124.673 43.8594 124.881 43.6577 125.02 43.4105C125.162 43.1634 125.233 42.9034 125.233 42.6307V41.7102C125.19 41.7614 125.097 41.8082 124.952 41.8509C124.81 41.8906 124.645 41.9261 124.457 41.9574C124.273 41.9858 124.092 42.0114 123.916 42.0341C123.743 42.054 123.602 42.071 123.494 42.0852C123.233 42.1193 122.989 42.1747 122.761 42.2514C122.537 42.3253 122.355 42.4375 122.216 42.5881C122.08 42.7358 122.011 42.9375 122.011 43.1932C122.011 43.5426 122.141 43.8068 122.399 43.9858C122.66 44.1619 122.991 44.25 123.392 44.25ZM128.84 41.0625V45H127.834V38.4545H128.806V39.4773H128.891C129.044 39.1449 129.277 38.8778 129.59 38.6761C129.902 38.4716 130.306 38.3693 130.8 38.3693C131.243 38.3693 131.631 38.4602 131.963 38.642C132.296 38.821 132.554 39.0938 132.739 39.4602C132.924 39.8239 133.016 40.2841 133.016 40.8409V45H132.01V40.9091C132.01 40.3949 131.877 39.9943 131.61 39.7074C131.343 39.4176 130.976 39.2727 130.51 39.2727C130.189 39.2727 129.902 39.3423 129.65 39.4815C129.4 39.6207 129.202 39.8239 129.057 40.0909C128.912 40.358 128.84 40.6818 128.84 41.0625ZM134.614 45V38.4545H135.619V45H134.614ZM135.125 37.3636C134.929 37.3636 134.76 37.2969 134.618 37.1634C134.479 37.0298 134.409 36.8693 134.409 36.6818C134.409 36.4943 134.479 36.3338 134.618 36.2003C134.76 36.0668 134.929 36 135.125 36C135.321 36 135.489 36.0668 135.628 36.2003C135.77 36.3338 135.841 36.4943 135.841 36.6818C135.841 36.8693 135.77 37.0298 135.628 37.1634C135.489 37.2969 135.321 37.3636 135.125 37.3636ZM140.068 38.4545V39.3068H136.676V38.4545H140.068ZM137.665 36.8864H138.67V43.125C138.67 43.4091 138.711 43.6222 138.794 43.7642C138.879 43.9034 138.987 43.9972 139.118 44.0455C139.251 44.0909 139.392 44.1136 139.54 44.1136C139.65 44.1136 139.741 44.108 139.812 44.0966C139.883 44.0824 139.94 44.071 139.983 44.0625L140.187 44.9659C140.119 44.9915 140.024 45.017 139.902 45.0426C139.78 45.071 139.625 45.0852 139.437 45.0852C139.153 45.0852 138.875 45.0241 138.602 44.902C138.332 44.7798 138.108 44.5938 137.929 44.3438C137.753 44.0938 137.665 43.7784 137.665 43.3977V36.8864ZM141.988 47.4545C141.818 47.4545 141.666 47.4403 141.533 47.4119C141.399 47.3864 141.307 47.3608 141.256 47.3352L141.511 46.4489C141.756 46.5114 141.971 46.5341 142.159 46.517C142.346 46.5 142.513 46.4162 142.658 46.2656C142.805 46.1179 142.94 45.8778 143.062 45.5455L143.25 45.0341L140.829 38.4545H141.92L143.727 43.6705H143.795L145.602 38.4545H146.693L143.915 45.9545C143.79 46.2926 143.635 46.5724 143.45 46.794C143.265 47.0185 143.051 47.1847 142.807 47.2926C142.565 47.4006 142.292 47.4545 141.988 47.4545Z" fill="white"/>
</g>
<defs>
<clipPath id="clip0_28_34">
<rect width="152" height="50" fill="white"/>
</clipPath>
</defs>
</svg>
